<svg width="66" height="75" viewBox="0 0 66 75" fill="none" xmlns="http://www.w3.org/2000/svg">
<path fill-rule="evenodd" clip-rule="evenodd" d="M22.7362 1.27926C7.52162 6.89932 -1.4579 21.6266 1.01129 36.9116C1.45744 39.6691 3.60867 46.0767 5.79169 51.1508C7.97471 56.2249 9.93019 61.7015 10.1369 63.3219L10.5125 66.2679L12.0953 62.8309L13.6782 59.3938L15.2462 62.8309C16.1534 64.8204 16.83 65.5314 16.8529 64.5189C16.9075 62.0472 19.6182 61.3166 21.7287 63.205C22.7094 64.0819 23.7557 64.5582 24.0528 64.2636C24.3509 63.97 26.1712 64.4718 28.0989 65.3802C31.4574 66.9632 33.7835 70.1577 33.7835 73.1881C33.7835 75.7414 37.4947 74.8036 38.1873 72.0755C39.2227 67.9982 43.1416 64.7949 47.0943 64.7949C48.9991 64.7949 50.8343 64.353 51.1722 63.8129C52.131 62.2799 55.3643 62.66 56.034 64.3844C56.3659 65.2388 56.6372 67.8902 56.6372 70.2765C56.6372 72.6628 56.9899 74.615 57.4212 74.615C57.8514 74.615 57.9021 71.4117 57.5324 67.4954C56.8448 60.2158 57.3814 57.0468 58.7258 60.4406C59.2246 61.6996 59.5018 60.6135 59.5485 57.2206C59.5863 54.4052 60.5442 49.7799 61.6759 46.9429C62.8067 44.1058 64.1143 40.002 64.5813 37.8229C65.0483 35.6438 65.7578 32.798 66.1582 31.4988C66.6749 29.8215 66.5527 29.3393 65.7369 29.8382C64.9519 30.3174 64.5863 29.4807 64.5863 27.2024C64.5863 22.5605 59.32 12.6156 54.6588 8.45385C48.1535 2.64524 43.2141 0.666484 34.2803 0.288409C29.2326 0.0753125 25.0196 0.436693 22.7362 1.27926ZM20.3694 6.02631C2.80382 14.9931 -1.41716 38.3247 12.0457 52.0356C16.1146 56.1797 25.7479 61.3912 26.9512 60.0999C28.6792 58.2458 29.8089 47.5095 29.8089 32.9344C29.8089 19.5516 29.4721 15.8042 27.7819 10.3963C26.667 6.82862 25.4369 3.92971 25.0494 3.95328C24.6609 3.97783 22.5554 4.90976 20.3694 6.02631ZM40.3216 5.74644C40.0275 6.21682 39.1074 9.1825 38.2757 12.3367C36.4395 19.3021 36.198 45.9687 37.8952 54.3197C39.168 60.585 39.8308 60.8835 45.7876 57.8805C62.4172 49.4961 66.7703 27.0797 54.4541 13.2529C49.2455 7.40506 41.7684 3.4338 40.3216 5.74644ZM9.54566 31.6519C12.0457 40.3084 17.766 43.77 23.6096 40.163C25.574 38.9503 25.5571 38.8776 22.8177 36.8831C21.2775 35.7617 17.7084 32.9649 14.8875 30.6699C12.0665 28.375 9.37475 26.4964 8.90675 26.4964C8.43874 26.4964 8.72591 28.8159 9.54566 31.6519ZM56.1404 27.7003C55.0473 28.2954 51.7693 30.9194 48.856 33.5315C45.9436 36.1437 42.925 38.2805 42.1489 38.2805C40.4746 38.2805 40.2809 39.8488 41.8369 40.7994C42.4411 41.1686 44.3419 41.6459 46.0599 41.86C50.8055 42.4531 54.5704 39.4216 56.7743 33.2359C58.9484 27.1347 58.845 26.2283 56.1404 27.7003ZM0.0782675 31.979C0.125962 33.123 0.361455 33.3557 0.678425 32.5731C0.965587 31.8641 0.929816 31.0166 0.599928 30.6906C0.27004 30.3645 0.0355411 30.9439 0.0782675 31.979ZM11.0868 71.669C11.0868 73.0192 11.3123 73.5721 11.5876 72.8965C11.8638 72.2218 11.8638 71.1171 11.5876 70.4415C11.3123 69.7668 11.0868 70.3187 11.0868 71.669Z" fill="#ED1B23"/>
</svg>
