<svg width="25" height="25" viewBox="0 0 25 25" fill="none" xmlns="http://www.w3.org/2000/svg">
<path fill-rule="evenodd" clip-rule="evenodd" d="M19.282 4.10997H3.10798V1.79907H23.2885V21.9796H20.9777V5.80497L3.76955 23.0131L2.07422 21.3177L19.282 4.10997Z" fill="white"/>
<path d="M19.282 4.10997L19.9891 4.81707L21.6962 3.10997H19.282V4.10997ZM3.10798 4.10997H2.10798V5.10997H3.10798V4.10997ZM3.10798 1.79907V0.799072H2.10798V1.79907H3.10798ZM23.2885 1.79907H24.2885V0.799072H23.2885V1.79907ZM23.2885 21.9796V22.9796H24.2885V21.9796H23.2885ZM20.9777 21.9796H19.9777V22.9796H20.9777V21.9796ZM20.9777 5.80497H21.9777V3.39076L20.2705 5.09787L20.9777 5.80497ZM3.76955 23.0131L3.06244 23.7202L3.76955 24.4273L4.47666 23.7202L3.76955 23.0131ZM2.07422 21.3177L1.36711 20.6106L0.660005 21.3177L1.36711 22.0249L2.07422 21.3177ZM19.282 3.10997H3.10798V5.10997H19.282V3.10997ZM4.10798 4.10997V1.79907H2.10798V4.10997H4.10798ZM3.10798 2.79907H23.2885V0.799072H3.10798V2.79907ZM22.2885 1.79907V21.9796H24.2885V1.79907H22.2885ZM23.2885 20.9796H20.9777V22.9796H23.2885V20.9796ZM21.9777 21.9796V5.80497H19.9777V21.9796H21.9777ZM20.2705 5.09787L3.06244 22.306L4.47666 23.7202L21.6848 6.51208L20.2705 5.09787ZM4.47666 22.306L2.78133 20.6106L1.36711 22.0249L3.06244 23.7202L4.47666 22.306ZM2.78133 22.0249L19.9891 4.81707L18.5749 3.40286L1.36711 20.6106L2.78133 22.0249Z" fill="white"/>
</svg>
