<svg width="138" height="74" viewBox="0 0 138 74" fill="none" xmlns="http://www.w3.org/2000/svg">
<path d="M28.1012 13.2219H16.4012C14.2678 13.2219 13.2012 14.2552 13.2012 16.3219V57.6219C13.2012 59.4219 14.2678 60.3219 16.4012 60.3219H28.0012V73.3219H8.50117C3.16784 73.3219 0.501172 70.1552 0.501172 63.8219V9.72187C0.501172 3.38854 3.16784 0.22187 8.50117 0.22187H28.1012V13.2219ZM64.3348 73.4219H51.5348L50.8348 60.3219H45.4348L44.7348 73.3219H32.1348L35.8348 0.22187H60.4348L64.3348 73.4219ZM50.2348 47.5219L48.4348 13.1219H47.9348L46.1348 47.5219H50.2348ZM101.398 63.8219C101.398 66.1552 100.798 68.2552 99.598 70.1219C98.198 72.2552 96.398 73.3219 94.198 73.3219H77.698C72.4314 73.3219 69.798 70.1552 69.798 63.8219V38.0219H82.398V57.0219C82.398 58.3552 82.5647 59.2552 82.898 59.7219C83.2314 60.1885 84.098 60.4219 85.498 60.4219C86.8314 60.4219 87.698 60.2219 88.098 59.8219C88.498 59.3552 88.698 58.4552 88.698 57.1219V39.9219C88.698 38.6552 88.198 37.7552 87.198 37.2219L71.998 29.2219C70.5314 28.4219 69.798 27.1552 69.798 25.4219V9.72187C69.798 3.38854 72.4314 0.22187 77.698 0.22187H94.098C96.3647 0.22187 98.198 1.28854 99.598 3.42187C100.798 5.28854 101.398 7.38854 101.398 9.72187V19.8219H88.698V16.5219C88.698 14.3219 87.6647 13.2219 85.598 13.2219C83.4647 13.2219 82.398 14.2885 82.398 16.4219V18.4219C82.398 19.5552 82.8647 20.3219 83.798 20.7219L98.798 28.8219C100.531 29.7552 101.398 31.0885 101.398 32.8219V63.8219ZM137.507 12.9219H128.307V73.3219H115.507V12.9219H106.307V0.22187H137.507V12.9219Z" fill="white"/>
</svg>
