<svg width="854" height="157" viewBox="0 0 854 157" fill="none" xmlns="http://www.w3.org/2000/svg">
<mask id="path-1-outside-1_294_2" maskUnits="userSpaceOnUse" x="744.19" y="20.4501" width="116.669" height="116.674" fill="black">
<rect fill="white" x="744.19" y="20.4501" width="116.669" height="116.674"/>
<path fill-rule="evenodd" clip-rule="evenodd" d="M831.67 76.738L814.199 59.4024L816.676 56.9062L838.475 78.5357L816.845 100.334L814.349 97.8576L831.685 80.3863L764.869 80.6467L764.855 76.9984L831.67 76.738Z"/>
</mask>
<path fill-rule="evenodd" clip-rule="evenodd" d="M831.67 76.738L814.199 59.4024L816.676 56.9062L838.475 78.5357L816.845 100.334L814.349 97.8576L831.685 80.3863L764.869 80.6467L764.855 76.9984L831.67 76.738Z" fill="white"/>
<path d="M831.67 76.738L831.706 85.738L853.433 85.6533L838.01 70.3493L831.67 76.738ZM814.199 59.4024L807.81 53.0633L801.471 59.452L807.86 65.7911L814.199 59.4024ZM816.676 56.9062L823.015 50.5175L816.626 44.1784L810.287 50.5671L816.676 56.9062ZM838.475 78.5357L844.863 84.8748L851.203 78.4861L844.814 72.147L838.475 78.5357ZM816.845 100.334L810.506 106.723L816.895 113.062L823.234 106.673L816.845 100.334ZM814.349 97.8576L807.96 91.5184L801.621 97.9072L808.01 104.246L814.349 97.8576ZM831.685 80.3863L838.073 86.7254L853.377 71.3017L831.65 71.3864L831.685 80.3863ZM764.869 80.6467L755.869 80.6818L755.904 89.6817L764.904 89.6466L764.869 80.6467ZM764.855 76.9984L764.82 67.9985L755.82 68.0335L755.855 77.0335L764.855 76.9984ZM838.01 70.3493L820.538 53.0137L807.86 65.7911L825.331 83.1267L838.01 70.3493ZM820.588 65.7415L823.065 63.2454L810.287 50.5671L807.81 53.0633L820.588 65.7415ZM810.337 63.295L832.136 84.9244L844.814 72.147L823.015 50.5175L810.337 63.295ZM832.086 72.1966L810.457 93.9952L823.234 106.673L844.863 84.8748L832.086 72.1966ZM823.184 93.9456L820.688 91.4688L808.01 104.246L810.506 106.723L823.184 93.9456ZM820.738 104.197L838.073 86.7254L825.296 74.0472L807.96 91.5184L820.738 104.197ZM831.65 71.3864L764.834 71.6468L764.904 89.6466L831.72 89.3863L831.65 71.3864ZM773.869 80.6116L773.855 76.9633L755.855 77.0335L755.869 80.6818L773.869 80.6116ZM764.89 85.9983L831.706 85.738L831.635 67.7381L764.82 67.9985L764.89 85.9983Z" fill="white" mask="url(#path-1-outside-1_294_2)"/>
<path d="M51.9827 40.3426H32.0927C28.4661 40.3426 26.6527 42.0993 26.6527 45.6126V115.823C26.6527 118.883 28.4661 120.413 32.0927 120.413H51.8127V142.513H18.6627C9.59607 142.513 5.06273 137.129 5.06273 126.363V34.3926C5.06273 23.6259 9.59607 18.2426 18.6627 18.2426H51.9827V40.3426ZM114.94 126.363C114.94 130.329 113.92 133.899 111.88 137.073C109.5 140.699 106.44 142.513 102.7 142.513H74.6498C65.5832 142.513 61.0498 137.129 61.0498 126.363V34.3926C61.0498 23.6259 65.5832 18.2426 74.6498 18.2426H102.7C106.44 18.2426 109.5 20.0559 111.88 23.6826C113.92 26.8559 114.94 30.4259 114.94 34.3926V126.363ZM93.3498 115.823V45.6126C93.3498 41.7593 91.5365 39.8893 87.9098 40.0026C84.3965 40.0026 82.6398 41.8726 82.6398 45.6126V115.823C82.6398 119.223 84.3965 120.923 87.9098 120.923C91.5365 120.923 93.3498 119.223 93.3498 115.823ZM192.31 142.513H170.72V94.2326L159.16 126.533H158.99L147.26 94.2326V142.513H125.67V18.2426H147.26L159.16 54.1126L170.72 18.2426H192.31V142.513ZM268.717 142.513H247.127V94.2326L235.567 126.533H235.397L223.667 94.2326V142.513H202.077V18.2426H223.667L235.567 54.1126L247.127 18.2426H268.717V142.513ZM299.904 142.513H278.144V18.2426H299.904V142.513ZM364.293 142.513H342.533L331.993 82.6726V142.513H310.233V18.2426H331.993L342.533 60.9126V18.2426H364.293V142.513ZM427.395 142.683C420.595 142.683 413.851 142.626 407.165 142.513H387.105C378.038 142.513 373.505 137.129 373.505 126.363V34.3926C373.505 23.6259 378.038 18.2426 387.105 18.2426H420.425V40.3426H400.705C396.965 40.3426 395.095 42.0993 395.095 45.6126V115.823C395.095 118.883 396.965 120.413 400.705 120.413H405.805V82.8426H399.515V61.0826H427.395V142.683ZM472.01 79.2726H433.93V56.3226H472.01V79.2726ZM535.42 126.363C535.42 130.329 534.4 133.899 532.36 137.073C529.98 140.699 526.92 142.513 523.18 142.513H495.13C486.177 142.513 481.7 137.129 481.7 126.363V82.5026H503.12V114.803C503.12 117.069 503.404 118.599 503.97 119.393C504.537 120.186 506.01 120.583 508.39 120.583C510.657 120.583 512.13 120.243 512.81 119.563C513.49 118.769 513.83 117.239 513.83 114.973V85.7326C513.83 83.5793 512.98 82.0493 511.28 81.1426L485.44 67.5426C482.947 66.1826 481.7 64.0293 481.7 61.0826V34.3926C481.7 23.6259 486.177 18.2426 495.13 18.2426H523.01C526.864 18.2426 529.98 20.0559 532.36 23.6826C534.4 26.8559 535.42 30.4259 535.42 34.3926V51.5626H513.83V45.9526C513.83 42.2126 512.074 40.3426 508.56 40.3426C504.934 40.3426 503.12 42.1559 503.12 45.7826V49.1826C503.12 51.1093 503.914 52.4126 505.5 53.0926L531 66.8626C533.947 68.4493 535.42 70.7159 535.42 73.6626V126.363ZM599.526 126.363C599.526 130.329 598.506 133.899 596.466 137.073C594.086 140.699 591.026 142.513 587.286 142.513H559.236C550.169 142.513 545.636 137.129 545.636 126.363V34.3926C545.636 23.6259 550.169 18.2426 559.236 18.2426H587.286C591.026 18.2426 594.086 20.0559 596.466 23.6826C598.506 26.8559 599.526 30.4259 599.526 34.3926V126.363ZM577.936 115.823V45.6126C577.936 41.7593 576.123 39.8893 572.496 40.0026C568.983 40.0026 567.226 41.8726 567.226 45.6126V115.823C567.226 119.223 568.983 120.923 572.496 120.923C576.123 120.923 577.936 119.223 577.936 115.823ZM664.146 126.363C664.146 130.329 663.126 133.899 661.086 137.073C658.706 140.699 655.646 142.513 651.906 142.513H623.856C614.789 142.513 610.256 137.129 610.256 126.363V34.3926C610.256 23.6259 614.789 18.2426 623.856 18.2426H651.906C655.646 18.2426 658.706 20.0559 661.086 23.6826C663.126 26.8559 664.146 30.4259 664.146 34.3926V126.363ZM642.556 115.823V45.6126C642.556 41.7593 640.743 39.8893 637.116 40.0026C633.603 40.0026 631.846 41.8726 631.846 45.6126V115.823C631.846 119.223 633.603 120.923 637.116 120.923C640.743 120.923 642.556 119.223 642.556 115.823ZM728.936 142.513H707.176L696.636 82.6726V142.513H674.876V18.2426H696.636L707.176 60.9126V18.2426H728.936V142.513Z" fill="white"/>
</svg>
