<svg width="1717" height="468" viewBox="0 0 1717 468" fill="none" xmlns="http://www.w3.org/2000/svg">
<g filter="url(#filter0_d_103_29)">
<mask id="path-1-outside-1_103_29" maskUnits="userSpaceOnUse" x="52.6826" y="47.5719" width="1612" height="365" fill="black">
<rect fill="white" x="52.6826" y="47.5719" width="1612" height="365"/>
<path d="M210.235 361.047C210.235 374.757 204.751 385.877 193.783 394.408C182.815 402.939 170.323 407.204 156.309 407.204L56.6826 407.661V53.0289H156.309C170.323 53.0289 182.815 57.2942 193.783 65.8249C204.751 74.3556 210.235 85.4759 210.235 99.1859V361.047ZM148.54 328.143V133.918C148.54 121.122 143.513 114.724 133.459 114.724H118.378V345.509H133.459C143.513 345.509 148.54 339.72 148.54 328.143Z"/>
<path d="M357.76 407.661H242.139V53.0289L357.76 52.5719V116.095H303.834V175.505H357.76V237.2H303.834V344.595H357.76V407.661Z"/>
<path d="M539.046 407.661H477.351L474.152 344.138H448.103L444.447 407.661H383.209L401.489 53.0289H520.766L539.046 407.661ZM470.953 282.443L462.27 115.181H459.985L451.302 282.443H470.953Z"/>
<path d="M719.647 361.047C719.647 374.757 714.163 385.877 703.195 394.408C692.227 402.939 679.735 407.204 665.721 407.204L566.095 407.661V53.0289H665.721C679.735 53.0289 692.227 57.2942 703.195 65.8249C714.163 74.3556 719.647 85.4759 719.647 99.1859V361.047ZM657.952 328.143V133.918C657.952 121.122 652.925 114.724 642.871 114.724H627.79V345.509H642.871C652.925 345.509 657.952 339.72 657.952 328.143Z"/>
<path d="M904.189 200.183C904.189 224.556 889.26 236.743 859.403 236.743H811.875V407.204H750.637V53.0289H858.946C871.133 53.0289 881.491 55.7709 890.022 61.2549C899.467 67.6529 904.189 76.6405 904.189 88.2179V200.183ZM842.494 158.596V130.262C842.494 120.513 837.467 115.638 827.413 115.638H811.875V175.048H827.413C837.467 175.048 842.494 169.564 842.494 158.596Z"/>
<path d="M1086.52 361.047C1086.52 372.32 1083.63 382.526 1077.84 391.666C1071.14 402.025 1062.3 407.204 1051.33 407.204H971.357C945.765 407.204 932.969 391.818 932.969 361.047V99.1859C932.969 86.0852 936.016 75.4219 942.109 67.1959C948.812 57.7512 958.561 53.0289 971.357 53.0289H1051.79C1062.45 53.0289 1071.14 58.2082 1077.84 68.5669C1083.63 77.7069 1086.52 87.9132 1086.52 99.1859V361.047ZM1024.83 331.342V131.176C1024.83 120.208 1019.65 114.724 1009.29 114.724C999.234 114.724 994.207 120.208 994.207 131.176V331.342C994.207 340.787 999.234 345.509 1009.29 345.509C1019.65 345.509 1024.83 340.787 1024.83 331.342Z"/>
<path d="M1272.39 361.047C1272.39 372.32 1269.5 382.526 1263.71 391.666C1257.01 402.025 1248.17 407.204 1237.2 407.204H1157.23C1131.64 407.204 1118.84 391.818 1118.84 361.047V99.1859C1118.84 86.0852 1121.89 75.4219 1127.98 67.1959C1134.68 57.7512 1144.43 53.0289 1157.23 53.0289H1237.66C1248.32 53.0289 1257.01 58.2082 1263.71 68.5669C1269.5 77.7069 1272.39 87.9132 1272.39 99.1859V361.047ZM1210.7 331.342V131.176C1210.7 120.208 1205.52 114.724 1195.16 114.724C1185.1 114.724 1180.08 120.208 1180.08 131.176V331.342C1180.08 340.787 1185.1 345.509 1195.16 345.509C1205.52 345.509 1210.7 340.787 1210.7 331.342Z"/>
<path d="M1414.39 407.661H1298.77L1299.23 53.0289H1360.46V344.595H1414.39V407.661Z"/>
<path d="M1497.68 237.2H1395.31V175.505H1497.68V237.2Z"/>
<path d="M1660.37 372.015C1660.37 383.897 1655.64 393.037 1646.2 399.435C1637.97 404.919 1627.62 407.661 1615.12 407.661H1522.81V344.595H1583.59C1593.65 344.595 1598.67 339.416 1598.67 329.057V253.195C1598.67 242.532 1593.65 237.2 1583.59 237.2H1522.81V175.048H1583.59C1593.65 175.048 1598.67 169.716 1598.67 159.053V130.719C1598.67 120.97 1593.65 116.095 1583.59 116.095H1522.81V53.0289H1615.12C1624.26 53.0289 1633.4 54.7046 1642.54 58.0559C1654.43 62.6259 1660.37 72.8322 1660.37 88.6749V175.962C1660.37 183.883 1657.32 190.738 1651.23 196.527C1645.44 202.011 1638.43 205.21 1630.21 206.124V207.038C1638.74 207.952 1645.9 211.151 1651.68 216.635C1657.47 222.119 1660.37 228.974 1660.37 237.2V372.015Z"/>
</mask>
<path d="M210.235 361.047C210.235 374.757 204.751 385.877 193.783 394.408C182.815 402.939 170.323 407.204 156.309 407.204L56.6826 407.661V53.0289H156.309C170.323 53.0289 182.815 57.2942 193.783 65.8249C204.751 74.3556 210.235 85.4759 210.235 99.1859V361.047ZM148.54 328.143V133.918C148.54 121.122 143.513 114.724 133.459 114.724H118.378V345.509H133.459C143.513 345.509 148.54 339.72 148.54 328.143Z" fill="white"/>
<path d="M357.76 407.661H242.139V53.0289L357.76 52.5719V116.095H303.834V175.505H357.76V237.2H303.834V344.595H357.76V407.661Z" fill="white"/>
<path d="M539.046 407.661H477.351L474.152 344.138H448.103L444.447 407.661H383.209L401.489 53.0289H520.766L539.046 407.661ZM470.953 282.443L462.27 115.181H459.985L451.302 282.443H470.953Z" fill="white"/>
<path d="M719.647 361.047C719.647 374.757 714.163 385.877 703.195 394.408C692.227 402.939 679.735 407.204 665.721 407.204L566.095 407.661V53.0289H665.721C679.735 53.0289 692.227 57.2942 703.195 65.8249C714.163 74.3556 719.647 85.4759 719.647 99.1859V361.047ZM657.952 328.143V133.918C657.952 121.122 652.925 114.724 642.871 114.724H627.79V345.509H642.871C652.925 345.509 657.952 339.72 657.952 328.143Z" fill="white"/>
<path d="M904.189 200.183C904.189 224.556 889.26 236.743 859.403 236.743H811.875V407.204H750.637V53.0289H858.946C871.133 53.0289 881.491 55.7709 890.022 61.2549C899.467 67.6529 904.189 76.6405 904.189 88.2179V200.183ZM842.494 158.596V130.262C842.494 120.513 837.467 115.638 827.413 115.638H811.875V175.048H827.413C837.467 175.048 842.494 169.564 842.494 158.596Z" fill="white"/>
<path d="M1086.52 361.047C1086.52 372.32 1083.63 382.526 1077.84 391.666C1071.14 402.025 1062.3 407.204 1051.33 407.204H971.357C945.765 407.204 932.969 391.818 932.969 361.047V99.1859C932.969 86.0852 936.016 75.4219 942.109 67.1959C948.812 57.7512 958.561 53.0289 971.357 53.0289H1051.79C1062.45 53.0289 1071.14 58.2082 1077.84 68.5669C1083.63 77.7069 1086.52 87.9132 1086.52 99.1859V361.047ZM1024.83 331.342V131.176C1024.83 120.208 1019.65 114.724 1009.29 114.724C999.234 114.724 994.207 120.208 994.207 131.176V331.342C994.207 340.787 999.234 345.509 1009.29 345.509C1019.65 345.509 1024.83 340.787 1024.83 331.342Z" fill="white"/>
<path d="M1272.39 361.047C1272.39 372.32 1269.5 382.526 1263.71 391.666C1257.01 402.025 1248.17 407.204 1237.2 407.204H1157.23C1131.64 407.204 1118.84 391.818 1118.84 361.047V99.1859C1118.84 86.0852 1121.89 75.4219 1127.98 67.1959C1134.68 57.7512 1144.43 53.0289 1157.23 53.0289H1237.66C1248.32 53.0289 1257.01 58.2082 1263.71 68.5669C1269.5 77.7069 1272.39 87.9132 1272.39 99.1859V361.047ZM1210.7 331.342V131.176C1210.7 120.208 1205.52 114.724 1195.16 114.724C1185.1 114.724 1180.08 120.208 1180.08 131.176V331.342C1180.08 340.787 1185.1 345.509 1195.16 345.509C1205.52 345.509 1210.7 340.787 1210.7 331.342Z" fill="white"/>
<path d="M1414.39 407.661H1298.77L1299.23 53.0289H1360.46V344.595H1414.39V407.661Z" fill="white"/>
<path d="M1497.68 237.2H1395.31V175.505H1497.68V237.2Z" fill="white"/>
<path d="M1660.37 372.015C1660.37 383.897 1655.64 393.037 1646.2 399.435C1637.97 404.919 1627.62 407.661 1615.12 407.661H1522.81V344.595H1583.59C1593.65 344.595 1598.67 339.416 1598.67 329.057V253.195C1598.67 242.532 1593.65 237.2 1583.59 237.2H1522.81V175.048H1583.59C1593.65 175.048 1598.67 169.716 1598.67 159.053V130.719C1598.67 120.97 1593.65 116.095 1583.59 116.095H1522.81V53.0289H1615.12C1624.26 53.0289 1633.4 54.7046 1642.54 58.0559C1654.43 62.6259 1660.37 72.8322 1660.37 88.6749V175.962C1660.37 183.883 1657.32 190.738 1651.23 196.527C1645.44 202.011 1638.43 205.21 1630.21 206.124V207.038C1638.74 207.952 1645.9 211.151 1651.68 216.635C1657.47 222.119 1660.37 228.974 1660.37 237.2V372.015Z" fill="white"/>
<path d="M210.235 361.047C210.235 374.757 204.751 385.877 193.783 394.408C182.815 402.939 170.323 407.204 156.309 407.204L56.6826 407.661V53.0289H156.309C170.323 53.0289 182.815 57.2942 193.783 65.8249C204.751 74.3556 210.235 85.4759 210.235 99.1859V361.047ZM148.54 328.143V133.918C148.54 121.122 143.513 114.724 133.459 114.724H118.378V345.509H133.459C143.513 345.509 148.54 339.72 148.54 328.143Z" stroke="white" stroke-width="8" mask="url(#path-1-outside-1_103_29)"/>
<path d="M357.76 407.661H242.139V53.0289L357.76 52.5719V116.095H303.834V175.505H357.76V237.2H303.834V344.595H357.76V407.661Z" stroke="white" stroke-width="8" mask="url(#path-1-outside-1_103_29)"/>
<path d="M539.046 407.661H477.351L474.152 344.138H448.103L444.447 407.661H383.209L401.489 53.0289H520.766L539.046 407.661ZM470.953 282.443L462.27 115.181H459.985L451.302 282.443H470.953Z" stroke="white" stroke-width="8" mask="url(#path-1-outside-1_103_29)"/>
<path d="M719.647 361.047C719.647 374.757 714.163 385.877 703.195 394.408C692.227 402.939 679.735 407.204 665.721 407.204L566.095 407.661V53.0289H665.721C679.735 53.0289 692.227 57.2942 703.195 65.8249C714.163 74.3556 719.647 85.4759 719.647 99.1859V361.047ZM657.952 328.143V133.918C657.952 121.122 652.925 114.724 642.871 114.724H627.79V345.509H642.871C652.925 345.509 657.952 339.72 657.952 328.143Z" stroke="white" stroke-width="8" mask="url(#path-1-outside-1_103_29)"/>
<path d="M904.189 200.183C904.189 224.556 889.26 236.743 859.403 236.743H811.875V407.204H750.637V53.0289H858.946C871.133 53.0289 881.491 55.7709 890.022 61.2549C899.467 67.6529 904.189 76.6405 904.189 88.2179V200.183ZM842.494 158.596V130.262C842.494 120.513 837.467 115.638 827.413 115.638H811.875V175.048H827.413C837.467 175.048 842.494 169.564 842.494 158.596Z" stroke="white" stroke-width="8" mask="url(#path-1-outside-1_103_29)"/>
<path d="M1086.52 361.047C1086.52 372.32 1083.63 382.526 1077.84 391.666C1071.14 402.025 1062.3 407.204 1051.33 407.204H971.357C945.765 407.204 932.969 391.818 932.969 361.047V99.1859C932.969 86.0852 936.016 75.4219 942.109 67.1959C948.812 57.7512 958.561 53.0289 971.357 53.0289H1051.79C1062.45 53.0289 1071.14 58.2082 1077.84 68.5669C1083.63 77.7069 1086.52 87.9132 1086.52 99.1859V361.047ZM1024.83 331.342V131.176C1024.83 120.208 1019.65 114.724 1009.29 114.724C999.234 114.724 994.207 120.208 994.207 131.176V331.342C994.207 340.787 999.234 345.509 1009.29 345.509C1019.65 345.509 1024.83 340.787 1024.83 331.342Z" stroke="white" stroke-width="8" mask="url(#path-1-outside-1_103_29)"/>
<path d="M1272.39 361.047C1272.39 372.32 1269.5 382.526 1263.71 391.666C1257.01 402.025 1248.17 407.204 1237.2 407.204H1157.23C1131.64 407.204 1118.84 391.818 1118.84 361.047V99.1859C1118.84 86.0852 1121.89 75.4219 1127.98 67.1959C1134.68 57.7512 1144.43 53.0289 1157.23 53.0289H1237.66C1248.32 53.0289 1257.01 58.2082 1263.71 68.5669C1269.5 77.7069 1272.39 87.9132 1272.39 99.1859V361.047ZM1210.7 331.342V131.176C1210.7 120.208 1205.52 114.724 1195.16 114.724C1185.1 114.724 1180.08 120.208 1180.08 131.176V331.342C1180.08 340.787 1185.1 345.509 1195.16 345.509C1205.52 345.509 1210.7 340.787 1210.7 331.342Z" stroke="white" stroke-width="8" mask="url(#path-1-outside-1_103_29)"/>
<path d="M1414.39 407.661H1298.77L1299.23 53.0289H1360.46V344.595H1414.39V407.661Z" stroke="white" stroke-width="8" mask="url(#path-1-outside-1_103_29)"/>
<path d="M1497.68 237.2H1395.31V175.505H1497.68V237.2Z" stroke="white" stroke-width="8" mask="url(#path-1-outside-1_103_29)"/>
<path d="M1660.37 372.015C1660.37 383.897 1655.64 393.037 1646.2 399.435C1637.97 404.919 1627.62 407.661 1615.12 407.661H1522.81V344.595H1583.59C1593.65 344.595 1598.67 339.416 1598.67 329.057V253.195C1598.67 242.532 1593.65 237.2 1583.59 237.2H1522.81V175.048H1583.59C1593.65 175.048 1598.67 169.716 1598.67 159.053V130.719C1598.67 120.97 1593.65 116.095 1583.59 116.095H1522.81V53.0289H1615.12C1624.26 53.0289 1633.4 54.7046 1642.54 58.0559C1654.43 62.6259 1660.37 72.8322 1660.37 88.6749V175.962C1660.37 183.883 1657.32 190.738 1651.23 196.527C1645.44 202.011 1638.43 205.21 1630.21 206.124V207.038C1638.74 207.952 1645.9 211.151 1651.68 216.635C1657.47 222.119 1660.37 228.974 1660.37 237.2V372.015Z" stroke="white" stroke-width="8" mask="url(#path-1-outside-1_103_29)"/>
</g>
<defs>
<filter id="filter0_d_103_29" x="0.682617" y="0.556061" width="1715.68" height="467.123" filterUnits="userSpaceOnUse" color-interpolation-filters="sRGB">
<feFlood flood-opacity="0" result="BackgroundImageFix"/>
<feColorMatrix in="SourceAlpha" type="matrix" values="0 0 0 0 0 0 0 0 0 0 0 0 0 0 0 0 0 0 127 0" result="hardAlpha"/>
<feOffset dy="4"/>
<feGaussianBlur stdDeviation="26"/>
<feComposite in2="hardAlpha" operator="out"/>
<feColorMatrix type="matrix" values="0 0 0 0 0 0 0 0 0 0 0 0 0 0 0 0 0 0 1 0"/>
<feBlend mode="normal" in2="BackgroundImageFix" result="effect1_dropShadow_103_29"/>
<feBlend mode="normal" in="SourceGraphic" in2="effect1_dropShadow_103_29" result="shape"/>
</filter>
</defs>
</svg>
