<svg width="1709" height="460" viewBox="0 0 1709 460" fill="none" xmlns="http://www.w3.org/2000/svg">
<g filter="url(#filter0_d_40_113)">
<mask id="path-1-outside-1_40_113" maskUnits="userSpaceOnUse" x="47.8867" y="43.6609" width="1613" height="365" fill="black">
<rect fill="white" x="47.8867" y="43.6609" width="1613" height="365"/>
<path d="M206.235 357.047C206.235 370.757 200.751 381.877 189.783 390.408C178.815 398.939 166.323 403.204 152.309 403.204L52.6827 403.661V49.0289H152.309C166.323 49.0289 178.815 53.2942 189.783 61.8249C200.751 70.3555 206.235 81.4759 206.235 95.1859V357.047ZM144.54 324.143V129.918C144.54 117.122 139.513 110.724 129.459 110.724H114.378V341.509H129.459C139.513 341.509 144.54 335.72 144.54 324.143ZM353.76 403.661H238.139V49.0289L353.76 48.5719V112.095H299.834V171.505H353.76V233.2H299.834V340.595H353.76V403.661ZM535.046 403.661H473.351L470.152 340.138H444.103L440.447 403.661H379.209L397.489 49.0289H516.766L535.046 403.661ZM466.953 278.443L458.27 111.181H455.985L447.302 278.443H466.953ZM715.647 357.047C715.647 370.757 710.163 381.877 699.195 390.408C688.227 398.939 675.736 403.204 661.721 403.204L562.095 403.661V49.0289H661.721C675.736 49.0289 688.227 53.2942 699.195 61.8249C710.163 70.3555 715.647 81.4759 715.647 95.1859V357.047ZM653.952 324.143V129.918C653.952 117.122 648.925 110.724 638.871 110.724H623.79V341.509H638.871C648.925 341.509 653.952 335.72 653.952 324.143ZM900.189 196.183C900.189 220.556 885.261 232.743 855.403 232.743H807.875V403.204H746.637V49.0289H854.946C867.133 49.0289 877.492 51.7709 886.022 57.2549C895.467 63.6529 900.189 72.6405 900.189 84.2179V196.183ZM838.494 154.596V126.262C838.494 116.513 833.467 111.638 823.413 111.638H807.875V171.048H823.413C833.467 171.048 838.494 165.564 838.494 154.596ZM1082.52 357.047C1082.52 368.32 1079.63 378.526 1073.84 387.666C1067.14 398.025 1058.3 403.204 1047.33 403.204H967.358C941.766 403.204 928.97 387.818 928.97 357.047V95.1859C928.97 82.0852 932.016 71.4219 938.11 63.1959C944.812 53.7512 954.562 49.0289 967.358 49.0289H1047.79C1058.45 49.0289 1067.14 54.2082 1073.84 64.5669C1079.63 73.7069 1082.52 83.9132 1082.52 95.1859V357.047ZM1020.83 327.342V127.176C1020.83 116.208 1015.65 110.724 1005.29 110.724C995.235 110.724 990.208 116.208 990.208 127.176V327.342C990.208 336.787 995.235 341.509 1005.29 341.509C1015.65 341.509 1020.83 336.787 1020.83 327.342ZM1268.39 357.047C1268.39 368.32 1265.5 378.526 1259.71 387.666C1253.01 398.025 1244.17 403.204 1233.2 403.204H1153.23C1127.64 403.204 1114.84 387.818 1114.84 357.047V95.1859C1114.84 82.0852 1117.89 71.4219 1123.98 63.1959C1130.68 53.7512 1140.43 49.0289 1153.23 49.0289H1233.66C1244.32 49.0289 1253.01 54.2082 1259.71 64.5669C1265.5 73.7069 1268.39 83.9132 1268.39 95.1859V357.047ZM1206.7 327.342V127.176C1206.7 116.208 1201.52 110.724 1191.16 110.724C1181.1 110.724 1176.08 116.208 1176.08 127.176V327.342C1176.08 336.787 1181.1 341.509 1191.16 341.509C1201.52 341.509 1206.7 336.787 1206.7 327.342ZM1410.39 403.661H1294.77L1295.23 49.0289H1356.46V340.595H1410.39V403.661ZM1493.68 233.2H1391.31V171.505H1493.68V233.2ZM1656.37 368.015C1656.37 379.897 1651.64 389.037 1642.2 395.435C1633.97 400.919 1623.62 403.661 1611.12 403.661H1518.81V340.595H1579.59C1589.65 340.595 1594.67 335.416 1594.67 325.057V249.195C1594.67 238.532 1589.65 233.2 1579.59 233.2H1518.81V171.048H1579.59C1589.65 171.048 1594.67 165.716 1594.67 155.053V126.719C1594.67 116.97 1589.65 112.095 1579.59 112.095H1518.81V49.0289H1611.12C1620.26 49.0289 1629.4 50.7045 1638.54 54.0559C1650.43 58.6259 1656.37 68.8322 1656.37 84.6749V171.962C1656.37 179.883 1653.32 186.738 1647.23 192.527C1641.44 198.011 1634.43 201.21 1626.21 202.124V203.038C1634.74 203.952 1641.9 207.151 1647.68 212.635C1653.47 218.119 1656.37 224.974 1656.37 233.2V368.015Z"/>
</mask>
<path d="M206.235 357.047C206.235 370.757 200.751 381.877 189.783 390.408C178.815 398.939 166.323 403.204 152.309 403.204L52.6827 403.661V49.0289H152.309C166.323 49.0289 178.815 53.2942 189.783 61.8249C200.751 70.3555 206.235 81.4759 206.235 95.1859V357.047ZM144.54 324.143V129.918C144.54 117.122 139.513 110.724 129.459 110.724H114.378V341.509H129.459C139.513 341.509 144.54 335.72 144.54 324.143ZM353.76 403.661H238.139V49.0289L353.76 48.5719V112.095H299.834V171.505H353.76V233.2H299.834V340.595H353.76V403.661ZM535.046 403.661H473.351L470.152 340.138H444.103L440.447 403.661H379.209L397.489 49.0289H516.766L535.046 403.661ZM466.953 278.443L458.27 111.181H455.985L447.302 278.443H466.953ZM715.647 357.047C715.647 370.757 710.163 381.877 699.195 390.408C688.227 398.939 675.736 403.204 661.721 403.204L562.095 403.661V49.0289H661.721C675.736 49.0289 688.227 53.2942 699.195 61.8249C710.163 70.3555 715.647 81.4759 715.647 95.1859V357.047ZM653.952 324.143V129.918C653.952 117.122 648.925 110.724 638.871 110.724H623.79V341.509H638.871C648.925 341.509 653.952 335.72 653.952 324.143ZM900.189 196.183C900.189 220.556 885.261 232.743 855.403 232.743H807.875V403.204H746.637V49.0289H854.946C867.133 49.0289 877.492 51.7709 886.022 57.2549C895.467 63.6529 900.189 72.6405 900.189 84.2179V196.183ZM838.494 154.596V126.262C838.494 116.513 833.467 111.638 823.413 111.638H807.875V171.048H823.413C833.467 171.048 838.494 165.564 838.494 154.596ZM1082.52 357.047C1082.52 368.32 1079.63 378.526 1073.84 387.666C1067.14 398.025 1058.3 403.204 1047.33 403.204H967.358C941.766 403.204 928.97 387.818 928.97 357.047V95.1859C928.97 82.0852 932.016 71.4219 938.11 63.1959C944.812 53.7512 954.562 49.0289 967.358 49.0289H1047.79C1058.45 49.0289 1067.14 54.2082 1073.84 64.5669C1079.63 73.7069 1082.52 83.9132 1082.52 95.1859V357.047ZM1020.83 327.342V127.176C1020.83 116.208 1015.65 110.724 1005.29 110.724C995.235 110.724 990.208 116.208 990.208 127.176V327.342C990.208 336.787 995.235 341.509 1005.29 341.509C1015.65 341.509 1020.83 336.787 1020.83 327.342ZM1268.39 357.047C1268.39 368.32 1265.5 378.526 1259.71 387.666C1253.01 398.025 1244.17 403.204 1233.2 403.204H1153.23C1127.64 403.204 1114.84 387.818 1114.84 357.047V95.1859C1114.84 82.0852 1117.89 71.4219 1123.98 63.1959C1130.68 53.7512 1140.43 49.0289 1153.23 49.0289H1233.66C1244.32 49.0289 1253.01 54.2082 1259.71 64.5669C1265.5 73.7069 1268.39 83.9132 1268.39 95.1859V357.047ZM1206.7 327.342V127.176C1206.7 116.208 1201.52 110.724 1191.16 110.724C1181.1 110.724 1176.08 116.208 1176.08 127.176V327.342C1176.08 336.787 1181.1 341.509 1191.16 341.509C1201.52 341.509 1206.7 336.787 1206.7 327.342ZM1410.39 403.661H1294.77L1295.23 49.0289H1356.46V340.595H1410.39V403.661ZM1493.68 233.2H1391.31V171.505H1493.68V233.2ZM1656.37 368.015C1656.37 379.897 1651.64 389.037 1642.2 395.435C1633.97 400.919 1623.62 403.661 1611.12 403.661H1518.81V340.595H1579.59C1589.65 340.595 1594.67 335.416 1594.67 325.057V249.195C1594.67 238.532 1589.65 233.2 1579.59 233.2H1518.81V171.048H1579.59C1589.65 171.048 1594.67 165.716 1594.67 155.053V126.719C1594.67 116.97 1589.65 112.095 1579.59 112.095H1518.81V49.0289H1611.12C1620.26 49.0289 1629.4 50.7045 1638.54 54.0559C1650.43 58.6259 1656.37 68.8322 1656.37 84.6749V171.962C1656.37 179.883 1653.32 186.738 1647.23 192.527C1641.44 198.011 1634.43 201.21 1626.21 202.124V203.038C1634.74 203.952 1641.9 207.151 1647.68 212.635C1653.47 218.119 1656.37 224.974 1656.37 233.2V368.015Z" fill="white"/>
<path d="M189.783 390.408L187.327 387.25L189.783 390.408ZM152.309 403.204V399.204H152.3L152.29 399.204L152.309 403.204ZM52.6827 403.661H48.6827V407.679L52.7011 407.661L52.6827 403.661ZM52.6827 49.0289V45.0289H48.6827V49.0289H52.6827ZM189.783 61.8249L187.327 64.9823L189.783 61.8249ZM114.378 110.724V106.724H110.378V110.724H114.378ZM114.378 341.509H110.378V345.509H114.378V341.509ZM202.235 357.047C202.235 369.503 197.336 379.466 187.327 387.25L192.238 393.565C204.165 384.289 210.235 372.011 210.235 357.047H202.235ZM187.327 387.25C177.068 395.23 165.442 399.204 152.309 399.204V407.204C167.205 407.204 180.562 402.647 192.238 393.565L187.327 387.25ZM152.29 399.204L52.6644 399.661L52.7011 407.661L152.327 407.204L152.29 399.204ZM56.6827 403.661V49.0289H48.6827V403.661H56.6827ZM52.6827 53.0289H152.309V45.0289H52.6827V53.0289ZM152.309 53.0289C165.442 53.0289 177.068 57.0028 187.327 64.9823L192.238 58.6675C180.562 49.5856 167.205 45.0289 152.309 45.0289V53.0289ZM187.327 64.9823C197.336 72.7671 202.235 82.7296 202.235 95.1859H210.235C210.235 80.2221 204.165 67.944 192.238 58.6675L187.327 64.9823ZM202.235 95.1859V357.047H210.235V95.1859H202.235ZM148.54 324.143V129.918H140.54V324.143H148.54ZM148.54 129.918C148.54 123.105 147.22 117.258 143.915 113.051C140.465 108.661 135.394 106.724 129.459 106.724V114.724C133.578 114.724 136.047 115.986 137.624 117.994C139.346 120.185 140.54 123.935 140.54 129.918H148.54ZM129.459 106.724H114.378V114.724H129.459V106.724ZM110.378 110.724V341.509H118.378V110.724H110.378ZM114.378 345.509H129.459V337.509H114.378V345.509ZM129.459 345.509C135.261 345.509 140.297 343.812 143.79 339.79C147.189 335.876 148.54 330.421 148.54 324.143H140.54C140.54 329.443 139.377 332.67 137.749 334.545C136.215 336.311 133.711 337.509 129.459 337.509V345.509ZM353.76 403.661V407.661H357.76V403.661H353.76ZM238.139 403.661H234.139V407.661H238.139V403.661ZM238.139 49.0289L238.123 45.0289L234.139 45.0447V49.0289H238.139ZM353.76 48.5719H357.76V44.556L353.744 44.5719L353.76 48.5719ZM353.76 112.095V116.095H357.76V112.095H353.76ZM299.834 112.095V108.095H295.834V112.095H299.834ZM299.834 171.505H295.834V175.505H299.834V171.505ZM353.76 171.505H357.76V167.505H353.76V171.505ZM353.76 233.2V237.2H357.76V233.2H353.76ZM299.834 233.2V229.2H295.834V233.2H299.834ZM299.834 340.595H295.834V344.595H299.834V340.595ZM353.76 340.595H357.76V336.595H353.76V340.595ZM353.76 399.661H238.139V407.661H353.76V399.661ZM242.139 403.661V49.0289H234.139V403.661H242.139ZM238.155 53.0288L353.776 52.5719L353.744 44.5719L238.123 45.0289L238.155 53.0288ZM349.76 48.5719V112.095H357.76V48.5719H349.76ZM353.76 108.095H299.834V116.095H353.76V108.095ZM295.834 112.095V171.505H303.834V112.095H295.834ZM299.834 175.505H353.76V167.505H299.834V175.505ZM349.76 171.505V233.2H357.76V171.505H349.76ZM353.76 229.2H299.834V237.2H353.76V229.2ZM295.834 233.2V340.595H303.834V233.2H295.834ZM299.834 344.595H353.76V336.595H299.834V344.595ZM349.76 340.595V403.661H357.76V340.595H349.76ZM535.046 403.661V407.661H539.258L539.041 403.455L535.046 403.661ZM473.351 403.661L469.356 403.862L469.548 407.661H473.351V403.661ZM470.152 340.138L474.147 339.937L473.956 336.138H470.152V340.138ZM444.103 340.138V336.138H440.327L440.11 339.908L444.103 340.138ZM440.447 403.661V407.661H444.224L444.441 403.891L440.447 403.661ZM379.209 403.661L375.215 403.455L374.998 407.661H379.209V403.661ZM397.489 49.0289V45.0289H393.69L393.495 48.823L397.489 49.0289ZM516.766 49.0289L520.761 48.823L520.565 45.0289H516.766V49.0289ZM466.953 278.443V282.443H471.166L470.948 278.236L466.953 278.443ZM458.27 111.181L462.265 110.973L462.068 107.181H458.27V111.181ZM455.985 111.181V107.181H452.188L451.991 110.973L455.985 111.181ZM447.302 278.443L443.308 278.236L443.089 282.443H447.302V278.443ZM535.046 399.661H473.351V407.661H535.046V399.661ZM477.346 403.46L474.147 339.937L466.157 340.339L469.356 403.862L477.346 403.46ZM470.152 336.138H444.103V344.138H470.152V336.138ZM440.11 339.908L436.454 403.431L444.441 403.891L448.097 340.368L440.11 339.908ZM440.447 399.661H379.209V407.661H440.447V399.661ZM383.204 403.867L401.484 49.2348L393.495 48.823L375.215 403.455L383.204 403.867ZM397.489 53.0289H516.766V45.0289H397.489V53.0289ZM512.772 49.2348L531.052 403.867L539.041 403.455L520.761 48.823L512.772 49.2348ZM470.948 278.236L462.265 110.973L454.276 111.388L462.959 278.65L470.948 278.236ZM458.27 107.181H455.985V115.181H458.27V107.181ZM451.991 110.973L443.308 278.236L451.297 278.65L459.98 111.388L451.991 110.973ZM447.302 282.443H466.953V274.443H447.302V282.443ZM699.195 390.408L696.739 387.25L699.195 390.408ZM661.721 403.204V399.204H661.712L661.703 399.204L661.721 403.204ZM562.095 403.661H558.095V407.679L562.113 407.661L562.095 403.661ZM562.095 49.0289V45.0289H558.095V49.0289H562.095ZM699.195 61.8249L696.739 64.9823L699.195 61.8249ZM623.79 110.724V106.724H619.79V110.724H623.79ZM623.79 341.509H619.79V345.509H623.79V341.509ZM711.647 357.047C711.647 369.503 706.748 379.466 696.739 387.25L701.651 393.565C713.578 384.289 719.647 372.011 719.647 357.047H711.647ZM696.739 387.25C686.48 395.23 674.854 399.204 661.721 399.204V407.204C676.617 407.204 689.974 402.647 701.651 393.565L696.739 387.25ZM661.703 399.204L562.077 399.661L562.113 407.661L661.739 407.204L661.703 399.204ZM566.095 403.661V49.0289H558.095V403.661H566.095ZM562.095 53.0289H661.721V45.0289H562.095V53.0289ZM661.721 53.0289C674.854 53.0289 686.48 57.0028 696.739 64.9823L701.651 58.6675C689.974 49.5856 676.617 45.0289 661.721 45.0289V53.0289ZM696.739 64.9823C706.748 72.7671 711.647 82.7296 711.647 95.1859H719.647C719.647 80.2221 713.578 67.944 701.651 58.6675L696.739 64.9823ZM711.647 95.1859V357.047H719.647V95.1859H711.647ZM657.952 324.143V129.918H649.952V324.143H657.952ZM657.952 129.918C657.952 123.105 656.632 117.258 653.327 113.051C649.878 108.661 644.806 106.724 638.871 106.724V114.724C642.99 114.724 645.459 115.986 647.036 117.994C648.758 120.185 649.952 123.935 649.952 129.918H657.952ZM638.871 106.724H623.79V114.724H638.871V106.724ZM619.79 110.724V341.509H627.79V110.724H619.79ZM623.79 345.509H638.871V337.509H623.79V345.509ZM638.871 345.509C644.673 345.509 649.709 343.812 653.202 339.79C656.601 335.876 657.952 330.421 657.952 324.143H649.952C649.952 329.443 648.789 332.67 647.162 334.545C645.628 336.311 643.123 337.509 638.871 337.509V345.509ZM807.875 232.743V228.743H803.875V232.743H807.875ZM807.875 403.204V407.204H811.875V403.204H807.875ZM746.637 403.204H742.637V407.204H746.637V403.204ZM746.637 49.0289V45.0289H742.637V49.0289H746.637ZM886.022 57.2549L888.266 53.9432L888.226 53.9162L888.185 53.8902L886.022 57.2549ZM807.875 111.638V107.638H803.875V111.638H807.875ZM807.875 171.048H803.875V175.048H807.875V171.048ZM896.189 196.183C896.189 207.514 892.758 215.365 886.463 220.504C880.013 225.77 869.89 228.743 855.403 228.743V236.743C870.774 236.743 883.044 233.622 891.522 226.702C900.156 219.654 904.189 209.225 904.189 196.183H896.189ZM855.403 228.743H807.875V236.743H855.403V228.743ZM803.875 232.743V403.204H811.875V232.743H803.875ZM807.875 399.204H746.637V407.204H807.875V399.204ZM750.637 403.204V49.0289H742.637V403.204H750.637ZM746.637 53.0289H854.946V45.0289H746.637V53.0289ZM854.946 53.0289C866.522 53.0289 876.094 55.6275 883.859 60.6196L888.185 53.8902C878.889 47.9143 867.744 45.0289 854.946 45.0289V53.0289ZM883.779 60.5666C892.105 66.2071 896.189 73.9437 896.189 84.2179H904.189C904.189 71.3373 898.828 61.0986 888.266 53.9432L883.779 60.5666ZM896.189 84.2179V196.183H904.189V84.2179H896.189ZM842.494 154.596V126.262H834.494V154.596H842.494ZM842.494 126.262C842.494 120.739 841.063 115.869 837.509 112.422C833.977 108.997 829.026 107.638 823.413 107.638V115.638C827.854 115.638 830.444 116.716 831.939 118.165C833.412 119.593 834.494 122.036 834.494 126.262H842.494ZM823.413 107.638H807.875V115.638H823.413V107.638ZM803.875 111.638V171.048H811.875V111.638H803.875ZM807.875 175.048H823.413V167.048H807.875V175.048ZM823.413 175.048C829.151 175.048 834.162 173.467 837.673 169.638C841.122 165.874 842.494 160.614 842.494 154.596H834.494C834.494 159.545 833.353 162.511 831.775 164.232C830.258 165.887 827.73 167.048 823.413 167.048V175.048ZM1073.84 387.666L1077.2 389.839L1077.21 389.823L1077.22 389.806L1073.84 387.666ZM938.109 63.1959L941.324 65.5768L941.348 65.5441L941.372 65.5108L938.109 63.1959ZM1073.84 64.5669L1077.22 62.4267L1077.21 62.4102L1077.2 62.3939L1073.84 64.5669ZM1078.52 357.047C1078.52 367.595 1075.82 377.054 1070.46 385.526L1077.22 389.806C1083.43 379.998 1086.52 369.044 1086.52 357.047H1078.52ZM1070.48 385.493C1064.41 394.88 1056.76 399.204 1047.33 399.204V407.204C1059.85 407.204 1069.87 401.169 1077.2 389.839L1070.48 385.493ZM1047.33 399.204H967.358V407.204H1047.33V399.204ZM967.358 399.204C955.392 399.204 947.077 395.642 941.642 389.107C936.089 382.43 932.97 371.977 932.97 357.047H924.97C924.97 372.888 928.248 385.513 935.491 394.222C942.852 403.073 953.731 407.204 967.358 407.204V399.204ZM932.97 357.047V95.1859H924.97V357.047H932.97ZM932.97 95.1859C932.97 82.7013 935.868 72.9424 941.324 65.5768L934.895 60.8149C928.165 69.9013 924.97 81.4691 924.97 95.1859H932.97ZM941.372 65.5108C947.237 57.246 955.699 53.0289 967.358 53.0289V45.0289C953.424 45.0289 942.387 50.2564 934.847 60.8809L941.372 65.5108ZM967.358 53.0289H1047.79V45.0289H967.358V53.0289ZM1047.79 53.0289C1056.86 53.0289 1064.38 57.3113 1070.48 66.7399L1077.2 62.3939C1069.89 51.1051 1060.04 45.0289 1047.79 45.0289V53.0289ZM1070.46 66.7071C1075.82 75.1792 1078.52 84.6376 1078.52 95.1859H1086.52C1086.52 83.1888 1083.43 72.2345 1077.22 62.4267L1070.46 66.7071ZM1078.52 95.1859V357.047H1086.52V95.1859H1078.52ZM1024.83 327.342V127.176H1016.83V327.342H1024.83ZM1024.83 127.176C1024.83 121.13 1023.4 115.853 1019.85 112.09C1016.26 108.285 1011.14 106.724 1005.29 106.724V114.724C1009.79 114.724 1012.45 115.905 1014.03 117.583C1015.66 119.305 1016.83 122.253 1016.83 127.176H1024.83ZM1005.29 106.724C999.551 106.724 994.539 108.305 991.029 112.134C987.579 115.897 986.208 121.157 986.208 127.176H994.208C994.208 122.226 995.349 119.26 996.926 117.54C998.443 115.885 1000.97 114.724 1005.29 114.724V106.724ZM986.208 127.176V327.342H994.208V127.176H986.208ZM986.208 327.342C986.208 332.747 987.658 337.518 991.239 340.883C994.773 344.202 999.705 345.509 1005.29 345.509V337.509C1000.82 337.509 998.209 336.454 996.716 335.052C995.271 333.694 994.208 331.381 994.208 327.342H986.208ZM1005.29 345.509C1011 345.509 1016.03 344.215 1019.64 340.923C1023.32 337.567 1024.83 332.781 1024.83 327.342H1016.83C1016.83 331.348 1015.75 333.645 1014.25 335.011C1012.68 336.441 1009.94 337.509 1005.29 337.509V345.509ZM1259.71 387.666L1263.07 389.839L1263.08 389.823L1263.09 389.806L1259.71 387.666ZM1123.98 63.1959L1127.19 65.5768L1127.22 65.5441L1127.24 65.5108L1123.98 63.1959ZM1259.71 64.5669L1263.09 62.4267L1263.08 62.4102L1263.07 62.3939L1259.71 64.5669ZM1264.39 357.047C1264.39 367.595 1261.7 377.054 1256.33 385.526L1263.09 389.806C1269.3 379.998 1272.39 369.044 1272.39 357.047H1264.39ZM1256.35 385.493C1250.28 394.88 1242.63 399.204 1233.2 399.204V407.204C1245.72 407.204 1255.74 401.169 1263.07 389.839L1256.35 385.493ZM1233.2 399.204H1153.23V407.204H1233.2V399.204ZM1153.23 399.204C1141.26 399.204 1132.95 395.642 1127.51 389.107C1121.96 382.43 1118.84 371.977 1118.84 357.047H1110.84C1110.84 372.888 1114.12 385.513 1121.36 394.222C1128.72 403.073 1139.6 407.204 1153.23 407.204V399.204ZM1118.84 357.047V95.1859H1110.84V357.047H1118.84ZM1118.84 95.1859C1118.84 82.7013 1121.74 72.9424 1127.19 65.5768L1120.77 60.8149C1114.04 69.9013 1110.84 81.4691 1110.84 95.1859H1118.84ZM1127.24 65.5108C1133.11 57.246 1141.57 53.0289 1153.23 53.0289V45.0289C1139.29 45.0289 1128.26 50.2564 1120.72 60.8809L1127.24 65.5108ZM1153.23 53.0289H1233.66V45.0289H1153.23V53.0289ZM1233.66 53.0289C1242.73 53.0289 1250.25 57.3113 1256.35 66.7399L1263.07 62.3939C1255.76 51.1051 1245.91 45.0289 1233.66 45.0289V53.0289ZM1256.33 66.7071C1261.7 75.1792 1264.39 84.6376 1264.39 95.1859H1272.39C1272.39 83.1888 1269.3 72.2345 1263.09 62.4267L1256.33 66.7071ZM1264.39 95.1859V357.047H1272.39V95.1859H1264.39ZM1210.7 327.342V127.176H1202.7V327.342H1210.7ZM1210.7 127.176C1210.7 121.13 1209.27 115.853 1205.72 112.09C1202.13 108.285 1197.02 106.724 1191.16 106.724V114.724C1195.66 114.724 1198.32 115.905 1199.9 117.583C1201.53 119.305 1202.7 122.253 1202.7 127.176H1210.7ZM1191.16 106.724C1185.42 106.724 1180.41 108.305 1176.9 112.134C1173.45 115.897 1172.08 121.157 1172.08 127.176H1180.08C1180.08 122.226 1181.22 119.26 1182.8 117.54C1184.31 115.885 1186.84 114.724 1191.16 114.724V106.724ZM1172.08 127.176V327.342H1180.08V127.176H1172.08ZM1172.08 327.342C1172.08 332.747 1173.53 337.518 1177.11 340.883C1180.64 344.202 1185.58 345.509 1191.16 345.509V337.509C1186.69 337.509 1184.08 336.454 1182.59 335.052C1181.14 333.694 1180.08 331.381 1180.08 327.342H1172.08ZM1191.16 345.509C1196.87 345.509 1201.9 344.215 1205.51 340.923C1209.19 337.567 1210.7 332.781 1210.7 327.342H1202.7C1202.7 331.348 1201.62 333.645 1200.12 335.011C1198.55 336.441 1195.81 337.509 1191.16 337.509V345.509ZM1410.39 403.661V407.661H1414.39V403.661H1410.39ZM1294.77 403.661L1290.77 403.656L1290.76 407.661H1294.77V403.661ZM1295.23 49.0289V45.0289H1291.23L1291.23 49.0237L1295.23 49.0289ZM1356.46 49.0289H1360.46V45.0289H1356.46V49.0289ZM1356.46 340.595H1352.46V344.595H1356.46V340.595ZM1410.39 340.595H1414.39V336.595H1410.39V340.595ZM1410.39 399.661H1294.77V407.661H1410.39V399.661ZM1298.77 403.666L1299.23 49.034L1291.23 49.0237L1290.77 403.656L1298.77 403.666ZM1295.23 53.0289H1356.46V45.0289H1295.23V53.0289ZM1352.46 49.0289V340.595H1360.46V49.0289H1352.46ZM1356.46 344.595H1410.39V336.595H1356.46V344.595ZM1406.39 340.595V403.661H1414.39V340.595H1406.39ZM1493.68 233.2V237.2H1497.68V233.2H1493.68ZM1391.31 233.2H1387.31V237.2H1391.31V233.2ZM1391.31 171.505V167.505H1387.31V171.505H1391.31ZM1493.68 171.505H1497.68V167.505H1493.68V171.505ZM1493.68 229.2H1391.31V237.2H1493.68V229.2ZM1395.31 233.2V171.505H1387.31V233.2H1395.31ZM1391.31 175.505H1493.68V167.505H1391.31V175.505ZM1489.68 171.505V233.2H1497.68V171.505H1489.68ZM1642.2 395.435L1644.42 398.763L1644.43 398.755L1644.44 398.747L1642.2 395.435ZM1518.81 403.661H1514.81V407.661H1518.81V403.661ZM1518.81 340.595V336.595H1514.81V340.595H1518.81ZM1518.81 233.2H1514.81V237.2H1518.81V233.2ZM1518.81 171.048V167.048H1514.81V171.048H1518.81ZM1518.81 112.095H1514.81V116.095H1518.81V112.095ZM1518.81 49.0289V45.0289H1514.81V49.0289H1518.81ZM1638.54 54.0559L1639.98 50.3225L1639.95 50.3112L1639.92 50.3004L1638.54 54.0559ZM1647.23 192.527L1649.98 195.431L1649.98 195.427L1647.23 192.527ZM1626.21 202.124L1625.76 198.148L1622.21 198.544V202.124H1626.21ZM1626.21 203.038H1622.21V206.632L1625.78 207.015L1626.21 203.038ZM1647.68 212.635L1644.93 215.539L1647.68 212.635ZM1652.37 368.015C1652.37 378.636 1648.25 386.506 1639.96 392.123L1644.44 398.747C1655.04 391.568 1660.37 381.158 1660.37 368.015H1652.37ZM1639.98 392.107C1632.57 397.05 1623.03 399.661 1611.12 399.661V407.661C1624.2 407.661 1635.38 404.788 1644.42 398.763L1639.98 392.107ZM1611.12 399.661H1518.81V407.661H1611.12V399.661ZM1522.81 403.661V340.595H1514.81V403.661H1522.81ZM1518.81 344.595H1579.59V336.595H1518.81V344.595ZM1579.59 344.595C1585.27 344.595 1590.25 343.126 1593.77 339.496C1597.27 335.888 1598.67 330.823 1598.67 325.057H1590.67C1590.67 329.649 1589.56 332.353 1588.03 333.924C1586.53 335.474 1583.97 336.595 1579.59 336.595V344.595ZM1598.67 325.057V249.195H1590.67V325.057H1598.67ZM1598.67 249.195C1598.67 243.303 1597.29 238.141 1593.81 234.455C1590.29 230.724 1585.3 229.2 1579.59 229.2V237.2C1583.94 237.2 1586.48 238.341 1587.99 239.943C1589.54 241.588 1590.67 244.423 1590.67 249.195H1598.67ZM1579.59 229.2H1518.81V237.2H1579.59V229.2ZM1522.81 233.2V171.048H1514.81V233.2H1522.81ZM1518.81 175.048H1579.59V167.048H1518.81V175.048ZM1579.59 175.048C1585.3 175.048 1590.29 173.524 1593.81 169.793C1597.29 166.107 1598.67 160.944 1598.67 155.053H1590.67C1590.67 159.825 1589.54 162.66 1587.99 164.305C1586.48 165.906 1583.94 167.048 1579.59 167.048V175.048ZM1598.67 155.053V126.719H1590.67V155.053H1598.67ZM1598.67 126.719C1598.67 121.196 1597.24 116.326 1593.69 112.879C1590.15 109.454 1585.2 108.095 1579.59 108.095V116.095C1584.03 116.095 1586.62 117.173 1588.12 118.622C1589.59 120.05 1590.67 122.493 1590.67 126.719H1598.67ZM1579.59 108.095H1518.81V116.095H1579.59V108.095ZM1522.81 112.095V49.0289H1514.81V112.095H1522.81ZM1518.81 53.0289H1611.12V45.0289H1518.81V53.0289ZM1611.12 53.0289C1619.76 53.0289 1628.44 54.6112 1637.17 57.8114L1639.92 50.3004C1630.37 46.7979 1620.76 45.0289 1611.12 45.0289V53.0289ZM1637.11 57.7892C1642.27 59.7746 1645.98 62.8976 1648.45 67.1504C1650.97 71.4685 1652.37 77.2274 1652.37 84.6749H1660.37C1660.37 76.2797 1658.8 69.0141 1655.37 63.1258C1651.9 57.1723 1646.7 52.9071 1639.98 50.3225L1637.11 57.7892ZM1652.37 84.6749V171.962H1660.37V84.6749H1652.37ZM1652.37 171.962C1652.37 178.714 1649.82 184.542 1644.47 189.627L1649.98 195.427C1656.82 188.935 1660.37 181.052 1660.37 171.962H1652.37ZM1644.48 189.623C1639.35 194.484 1633.16 197.327 1625.76 198.148L1626.65 206.099C1635.7 205.093 1643.53 201.538 1649.98 195.431L1644.48 189.623ZM1622.21 202.124V203.038H1630.21V202.124H1622.21ZM1625.78 207.015C1633.51 207.843 1639.83 210.705 1644.93 215.539L1650.44 209.731C1643.96 203.597 1635.96 200.06 1626.63 199.061L1625.78 207.015ZM1644.93 215.539C1649.9 220.241 1652.37 226.033 1652.37 233.2H1660.37C1660.37 223.915 1657.05 215.997 1650.44 209.731L1644.93 215.539ZM1652.37 233.2V368.015H1660.37V233.2H1652.37Z" fill="white" mask="url(#path-1-outside-1_40_113)"/>
</g>
<defs>
<filter id="filter0_d_40_113" x="0.682617" y="0.571884" width="1707.68" height="459.089" filterUnits="userSpaceOnUse" color-interpolation-filters="sRGB">
<feFlood flood-opacity="0" result="BackgroundImageFix"/>
<feColorMatrix in="SourceAlpha" type="matrix" values="0 0 0 0 0 0 0 0 0 0 0 0 0 0 0 0 0 0 127 0" result="hardAlpha"/>
<feOffset dy="4"/>
<feGaussianBlur stdDeviation="26"/>
<feComposite in2="hardAlpha" operator="out"/>
<feColorMatrix type="matrix" values="0 0 0 0 0 0 0 0 0 0 0 0 0 0 0 0 0 0 1 0"/>
<feBlend mode="normal" in2="BackgroundImageFix" result="effect1_dropShadow_40_113"/>
<feBlend mode="normal" in="SourceGraphic" in2="effect1_dropShadow_40_113" result="shape"/>
</filter>
</defs>
</svg>
