<svg width="348" height="289" viewBox="0 0 348 289" fill="none" xmlns="http://www.w3.org/2000/svg">
<g clip-path="url(#clip0_280_197)">
<path d="M184.267 42.6784C175.113 41.2766 167.285 45.1386 160.62 50.9266C153.785 57.356 149.455 65.9517 151.397 75.6094C152.846 82.1976 159.774 87.1298 165.744 88.2635C176.82 89.6635 187.081 85.0231 194.175 75.6094C198.622 69.4679 201.092 59.981 197.264 52.6899C194.428 47.5131 189.818 43.6431 184.267 42.6784Z" fill="white"/>
<path d="M275.457 209.679L116.308 226.81L315.415 248.941V223.216L275.457 209.679Z" fill="white"/>
<path d="M55.3357 234.701C49.4423 238.585 45.2826 245.248 46.7025 252.627C47.6537 257.976 52.4346 262.356 57.1326 264.458C59.6008 265.708 60.9589 266.407 64.2332 267.634C66.0104 268.865 62.2632 268.682 60.9589 269.215L0.104492 278.169V288.097H347.001V261.065L83.954 231.107C74.9197 229.451 62.617 229.952 55.3357 234.701Z" fill="white"/>
<path d="M260.612 57.2647C262.121 54.9891 263.94 54.2603 266.228 54.2603C268.364 54.1749 271.35 55.1598 273.833 56.2084L287.735 62.3579L284.257 47.0826L260.613 35.745L260.612 57.2647Z" fill="white"/>
<path d="M122.725 208.641C126.698 208.11 128.533 203.249 128.541 198.348L128.569 182.563L117.012 178.219L116.975 200.017C116.967 204.853 118.744 209.17 122.725 208.641Z" fill="white"/>
<path d="M151.159 182.345L151.117 204.965L156.099 204.302C161.555 203.575 164.992 198.004 165.004 191.602C165.016 184.946 161.877 180.653 156.184 181.55L151.159 182.345Z" fill="white"/>
<path d="M223.049 161.17C223.093 161.186 223.132 161.194 223.168 161.206L223.057 161.17H223.049Z" fill="white"/>
<path d="M215.269 171.988C209.173 172.953 205.309 178.445 205.293 185.803C205.278 193.091 209.133 197.531 215.229 196.72C221.345 195.911 225.348 190.327 225.36 182.877C225.371 175.371 221.392 171.019 215.269 171.988Z" fill="white"/>
<path d="M256.538 118.941L261.518 109.349L246.951 103.872L246.899 103.884L256.538 118.941Z" fill="white"/>
<path d="M324.21 204.325C317.547 205.727 313.195 202.121 311.586 196.942C311.062 195.379 311.745 194.918 313.452 194.584C318.571 193.802 323.857 192.662 328.988 191.578C331.45 191.153 331.299 191.931 331.204 193.178C332.244 197.825 328.916 203.011 324.21 204.325ZM36.2029 207.053C34.6742 210.818 30.9412 213.376 27.0691 213.451C23.068 213.812 19.5616 212.319 17.6016 207.653C16.2355 204.226 15.8286 199.064 18.1178 199.588C24.3526 200.358 30.0015 201.792 36.0437 203.17C37.6779 203.694 36.6612 205.727 36.2029 207.053ZM229.2 57.6061L237.127 55.7692V64.194L244.048 62.4428V70.0794L237.127 71.5964V90.9876L229.2 92.8144V57.6061ZM305.09 0L322.84 185.363C323.111 187.193 322.936 189.675 320.553 190.271C318.679 190.986 317.471 189.675 316.872 188.437L311.614 165.562L276.116 151.433L262.133 153.784C265.739 154.205 268.96 155.622 271.656 158.022L266.549 166.937C263.297 164.153 258.658 164.411 255.283 164.947C252.034 165.463 250.787 167.286 250.783 169.335C250.779 171.814 253.098 172.305 257.324 172.663C263.674 173.346 272.291 173.954 272.271 184.863C272.263 188.937 271.263 192.543 269.356 195.457L241.224 198.96C240.692 198.504 240.188 198.015 239.707 197.499L244.366 188.611C247.05 191.618 251.649 192.65 256.831 191.963C260.231 191.518 262.312 189.453 262.316 187.166C262.32 184.45 259.838 183.719 255.763 183.227C249.516 182.552 241.165 182.186 241.185 171.123C241.189 169.661 241.367 168.207 241.717 166.794L223.406 161.274C230.666 163.514 235.634 170.844 235.613 181.388C235.602 189.021 232.973 195.728 228.763 200.509L201.978 203.845C198.042 200.227 195.643 194.445 195.659 187.201C195.667 180.843 197.542 175.061 200.671 170.518L188.901 166.094L188.793 166.111L188.726 205.493L180.244 206.546L180.295 177.126L163.276 171.987C169.278 174.053 173.186 180.462 173.174 190.414C173.156 197.844 170.96 203.956 167.355 208.153L143.293 211.144L143.355 177.568L136.344 174.935L136.271 174.946L136.234 198.285C136.221 203.618 135.103 208.658 132.764 212.454L112.864 214.932C110.643 211.803 109.606 207.216 109.614 202.145L109.648 182.48L103.995 180.376H103.987L104.954 189.66L97.3532 190.863L97.3057 216.866L90.3959 217.728L90.4417 191.955L83.0531 193.123L83.5276 188.461L74.9083 185.86L74.8906 185.88C76.8561 186.452 78.6194 187.603 80.1322 189.319L76.767 196.443C74.6145 194.1 71.549 194.195 69.3129 194.553C67.1565 194.894 66.3271 196.347 66.3226 198.02C66.3184 200.036 67.8632 200.493 70.6671 200.879C74.8629 201.581 80.5475 202.269 80.5315 211.121C80.5273 214.193 79.9577 216.918 78.8636 219.166L59.597 221.561C59.3729 221.303 59.1543 221.036 58.95 220.754L62.0537 213.59C63.8388 216.1 66.8926 217.033 70.3338 216.577C72.5772 216.283 73.9595 214.647 73.9595 212.784C73.9634 210.576 72.3211 209.933 69.6247 209.444C65.4807 208.761 59.9234 208.284 59.939 199.25C59.9428 196.196 60.7192 193.21 62.2202 190.803L55.9778 188.444L55.8845 180.391L276.116 141.449L309.089 154.578L297.838 105.627L277.053 97.5159L261.296 128.038L261.272 140.002L251.892 141.673L251.908 129.831L240.451 111.764L230.019 108.617L229.979 108.621C231.449 109.01 232.688 109.677 233.665 110.64C234.693 111.657 235.467 112.918 235.992 114.431C236.516 115.94 236.778 118.489 236.774 120.343C236.766 123.658 236.055 127.355 234.649 129.688C233.395 131.759 231.623 133.921 229.328 135.252L235.635 144.572L224.999 146.462L219.25 137.886L219.233 147.493L210.322 149.081L210.377 115.062L204.5 112.854L204.453 137.846C204.445 142.888 203.801 147.218 201.875 150.586L178.803 154.696C176.964 152.075 176.36 148.106 176.368 143.287L176.408 121.43L171.91 119.742L172.572 128.985L163.821 130.77L163.778 157.373L155.855 158.787L155.9 132.388L147.279 134.145L147.759 127.476L143.546 125.895L143.484 160.988L133.606 162.751L120.245 147.51L120.215 165.138L112.652 166.488L112.705 135.753L106.719 133.503L108.119 141.877L92.3156 145.101L92.3035 151.565L105.235 148.997L105.218 157.613L92.291 160.079L92.2792 166.746L108.263 163.788L107.674 167.374L85.0658 171.4L85.1133 143.243L76.6071 140.731C78.7079 141.398 80.4909 142.597 81.7994 143.922L78.3228 151.561C76.4603 149.353 73.8177 149.132 71.524 149.599C67.2988 150.46 64.2072 155.123 64.1954 161.004C64.1833 166.881 67.4535 170.129 71.6829 169.343C74.1947 168.874 76.7205 166.976 78.2989 164.804L81.7536 171.091C81.5073 171.436 81.2374 171.786 80.9655 172.131L61.4789 175.602C58.8123 172.711 57.1562 168.112 57.1642 162.306C57.1763 156.136 58.9615 150.616 61.8445 146.63L55.5917 144.274V136.806L278.189 86.5088L295.03 93.5359L288.864 67.0104L273.566 60.5075V82.5476L265.64 84.1343V68.9444C265.557 66.3669 266.775 62.5289 263.749 63.2317C262.498 63.2317 260.358 64.8184 260.184 66.1227V85.6173L251.383 87.5453V52.5289L215.778 37.0711L213.395 36.539C216.552 41.3619 218.509 46.7409 219.618 52.4293C221.758 72.7183 211.513 89.31 195.286 100.646L164.655 108.016C154.473 108.987 144.741 105.201 137.808 97.2026C129.714 87.2886 129.027 72.0016 132.867 59.7128L126.035 56.3989C135.851 81.05 104.438 99.5854 101.294 108.37L127.746 102.643V116.527L62.8457 131.819V122.858L97.4445 83.4044C102.555 77.6303 109.062 72.7183 107.072 66.9324C106.324 64.911 104.174 63.9258 102.481 63.3167C97.0948 62.2801 92.6333 64.5554 88.8029 67.8756C85.9056 70.7944 84.6332 74.569 84.4504 76.4831L63.3833 81.3061C64.1517 75.8001 65.0911 71.8309 66.9536 67.4569C72.7596 54.8898 85.4751 45.3058 98.4609 43.4887C112.644 41.0945 122.302 50.6868 134.664 54.9894C140.291 44.9641 149.789 34.4285 159.669 28.9742C172.678 20.9106 191.704 21.3591 205.536 27.2227L247.984 45.5736L251.642 46.8998V34.5058L260.1 30.6539L282.99 41.7234L273.49 0.278211H68.4168L32.1182 194.409C31.517 196.347 29.2313 197.3 27.4344 196.86C25.6992 196.164 24.8653 195.008 24.8653 192.562L33.4128 0.278211H0.104492V272.114L17.1867 269.655V225.742C17.3456 222.402 20.7053 221 24.3526 221C28.8661 221 32.1182 222.768 32.1182 225.321V267.463L47.6575 265.175C42.1057 259.569 38.7797 251.741 40.6762 243.568C42.7093 234.7 51.6586 227.576 59.9581 226.099L117.06 219.162L271.612 200.723L277.951 200.358C290.221 204.496 301.332 209.404 313.89 213.375C316.26 214.52 315.077 211.525 315.589 210.635C316.209 209.055 317.738 208.721 318.996 208.102C323.11 206.617 328.988 207.228 331.72 211.167L331.815 250.51L347.001 252.885V0L305.09 0Z" fill="white"/>
<path d="M135.673 151.173L135.696 137.196L118.938 130.898L118.793 130.926L135.673 151.173Z" fill="white"/>
<path d="M226.456 126.172C227.175 125.327 227.858 123.91 227.858 122.191C227.866 120.468 227.349 119.707 226.627 119.092C225.658 118.276 224.697 118.357 221.865 118.933L219.28 119.463L219.264 128.648L221.845 128.14C224.728 127.57 225.547 127.247 226.456 126.172Z" fill="white"/>
<path d="M190.259 147.907C195.159 146.998 195.739 143.316 195.747 138.364L195.774 121.296L184.607 117.096L184.567 140.519C184.559 145.427 185.35 148.818 190.259 147.907Z" fill="white"/>
<path d="M76.1466 140.596L76.1387 140.591C76.1425 140.596 76.1466 140.596 76.1466 140.596Z" fill="white"/>
<path d="M330.143 273.44H332.966L335.103 279.901H335.127L337.168 273.44H339.964V282.839H338.089V276.168H338.07L335.817 282.839H334.293L332.045 276.239H332.025V282.839H330.143V273.44Z" fill="white"/>
<path d="M321.598 273.44H329.071V275.183H326.327V282.839H324.314V275.183H321.598V273.44Z" fill="white"/>
</g>
<defs>
<clipPath id="clip0_280_197">
<rect width="347.105" height="288.097" fill="white"/>
</clipPath>
</defs>
</svg>
