<svg width="92" height="58" viewBox="0 0 92 58" fill="none" xmlns="http://www.w3.org/2000/svg">
<path d="M57.9228 31.7452C59.6908 29.7905 60.583 27.1634 60.583 24.1214H57.8149C57.8149 25.7441 57.4331 28.0391 55.8021 29.8444C54.2707 31.5419 51.9176 32.4383 48.8174 32.4383H17.4216V28.2093C17.4216 28.1761 17.2597 25.0095 19.1729 22.9552C20.3184 21.735 22.0531 21.0836 24.3481 21.0836L41.7497 21.0967C42.4926 21.0967 45.5263 20.9599 47.8878 18.7021C49.7387 16.9258 50.685 14.3445 50.685 11.012C50.685 7.7209 49.7512 5.10623 47.9002 3.25942C45.2856 0.648978 41.8244 0.640654 41.6584 0.640654L24.6013 0.586548C23.2733 0.586548 19.8909 0.843816 17.4008 3.13885C15.554 4.8487 14.6617 7.26827 14.6617 10.3311H17.4216C17.4216 8.09 18.1105 6.40505 19.3182 5.25546C21.3351 3.32564 24.9043 3.45436 24.9333 3.45436L41.6584 3.41282C41.6627 3.41282 43.2811 3.48363 44.8208 4.43799C46.8253 5.66644 47.8463 7.8784 47.8463 11.0118C47.8463 13.5143 47.203 15.3984 45.933 16.6268C44.19 18.3118 41.7331 18.2663 41.7082 18.2538H24.3481C21.2272 18.2538 18.7745 19.1834 17.0646 21.0426C14.4625 23.8647 14.6617 27.6371 14.6617 28.3593V35.203H48.8174C52.7019 35.203 55.8519 34.0403 57.9228 31.7452Z" fill="white"/>
<path d="M60.5855 0.59021H57.8174V22.0508H60.5855V0.59021Z" fill="white"/>
<path d="M69.974 32.4373V0.588989H67.21V34.2716V35.2054H77.963V32.4373H69.974Z" fill="white"/>
<path d="M4.23925 43.4644H2.56259V46.2657C2.56259 46.9546 2.56259 47.6769 3.44657 47.6769L4.2766 47.4982V48.5649L3.22247 48.7724C1.41715 48.7724 1.38395 47.6726 1.38395 46.689V43.4644H0.0351562V42.4392H1.38395V40.7043H2.56259V42.4392H4.23925V43.4644Z" fill="white"/>
<path d="M4.97754 42.4365H6.29728L7.67928 47.0639H7.71248L9.18579 42.4365H10.4267L11.983 47.0639H12.0079L13.3318 42.4365H14.5768L12.5806 48.6202H11.3937L9.7668 44.0054H9.74622L8.27292 48.6202H7.00712L4.97754 42.4365Z" fill="white"/>
<path d="M16.2121 45.961C16.2121 47.0525 17.2206 47.7538 18.2996 47.7538C19.0176 47.7538 19.5405 47.3969 19.997 46.8367L20.8768 47.505C20.2336 48.364 19.3247 48.7747 18.1419 48.7747C16.183 48.7747 14.9629 47.368 14.9629 45.5253C14.9629 43.691 16.2992 42.2841 18.1585 42.2841C20.3207 42.2841 21.1632 43.9608 21.1632 45.5503V45.961H16.2121ZM19.9099 45.0315C19.8893 43.994 19.3164 43.2385 18.1336 43.2385C16.9674 43.2385 16.2121 44.1973 16.2121 45.0315H19.9099Z" fill="white"/>
<path d="M22.417 42.4362H23.5956V43.3949H23.6205C23.9235 42.7392 24.7037 42.2869 25.65 42.2869C26.8493 42.2869 27.8869 42.9965 27.8869 44.64V48.6199H26.7207V44.9761C26.7207 43.81 26.0525 43.3909 25.3096 43.3909C24.3344 43.3909 23.5956 44.005 23.5956 45.4534V48.6199H22.417V42.4362Z" fill="white"/>
<path d="M32.8147 43.4644H31.138V46.2657C31.138 46.9546 31.138 47.6769 32.0262 47.6769L32.8562 47.4982V48.5649L31.7979 48.7724C29.9926 48.7724 29.9635 47.6726 29.9635 46.689V43.4644H28.6064V42.4392H29.9635V40.7043H31.138V42.4392H32.8147V43.4644Z" fill="white"/>
<path d="M33.5547 42.4364H34.9118L36.7503 47.2712H36.7752L38.5224 42.4364H39.7841L36.8416 49.9524C36.4307 51.0066 36.024 51.7326 34.7416 51.7326C34.3847 51.7326 34.0237 51.7128 33.6999 51.5833L33.841 50.5002L34.5424 50.6536C35.2853 50.6536 35.5053 50.2509 35.7377 49.6367L36.1195 48.6656L33.5547 42.4364Z" fill="white"/>
<path d="M43.3711 46.0175H40.1631V44.9259H43.3711V46.0175Z" fill="white"/>
<path d="M47.8199 42.2855C49.6542 42.2855 51.0985 43.7339 51.0985 45.5268C51.0985 47.3238 49.6542 48.7721 47.8199 48.7721C45.9855 48.7721 44.5371 47.3238 44.5371 45.5268C44.5371 43.7339 45.9855 42.2855 47.8199 42.2855ZM47.8199 47.6807C49.0691 47.6807 49.8493 46.7719 49.8493 45.5268C49.8493 44.2776 49.0691 43.3895 47.8199 43.3895C46.5665 43.3895 45.7822 44.2776 45.7822 45.5268C45.7822 46.7719 46.5665 47.6807 47.8199 47.6807Z" fill="white"/>
<path d="M52.3633 42.4362H53.5336V43.3949H53.5585C53.8615 42.7392 54.6459 42.2869 55.5962 42.2869C56.7915 42.2869 57.8373 42.9965 57.8373 44.64V48.6199H56.6587V44.9761C56.6587 43.81 55.9988 43.3909 55.2601 43.3909C54.2765 43.3909 53.5336 44.005 53.5336 45.4534V48.6199H52.3633V42.4362Z" fill="white"/>
<path d="M60.3227 45.961C60.3227 47.0525 61.3229 47.7538 62.406 47.7538C63.1157 47.7538 63.6386 47.3969 64.0952 46.8367L64.9833 47.505C64.3317 48.364 63.4311 48.7747 62.2483 48.7747C60.2936 48.7747 59.0693 47.368 59.0693 45.5253C59.0693 43.691 60.4098 42.2841 62.2608 42.2841C64.4396 42.2841 65.2738 43.9608 65.2738 45.5503V45.961H60.3227ZM64.0205 45.0315C63.9912 43.994 63.4228 43.2385 62.2317 43.2385C61.078 43.2385 60.3227 44.1973 60.3227 45.0315H64.0205Z" fill="white"/>
<path d="M70.3848 38.7715H71.5551V48.62H70.3848V38.7715Z" fill="white"/>
<path d="M73.1655 43.204C73.8171 42.5898 74.7633 42.2869 75.6182 42.2869C77.4402 42.2869 78.1955 43.2829 78.1955 44.337V47.4952C78.1955 47.931 78.2121 48.2962 78.2494 48.6199H77.2036L77.1663 47.678H77.1414C76.6226 48.479 75.9171 48.7694 74.9791 48.7694C73.8337 48.7694 72.8418 48.1345 72.8418 46.9351C72.8418 45.3332 74.369 44.781 76.2491 44.781H77.1081V44.5322C77.1081 43.8972 76.6392 43.233 75.6307 43.233C74.7343 43.233 74.2985 43.6024 73.8752 43.9303L73.1655 43.204ZM76.4815 45.6485C75.3692 45.6485 74.008 45.8517 74.008 46.8354C74.008 47.5368 74.5351 47.8397 75.3443 47.8397C76.6475 47.8397 77.1081 46.8811 77.1081 46.022V45.6485H76.4815Z" fill="white"/>
<path d="M79.7607 42.4362H80.9269V43.3244H80.9558C81.4082 42.6728 82.2673 42.2869 83.1056 42.2869C85.0188 42.2869 86.2431 43.7228 86.2431 45.5282C86.2431 47.3874 85.0105 48.7694 83.1056 48.7694C82.2257 48.7694 81.375 48.3709 80.9558 47.736H80.9269V52.2845H79.7607V42.4362ZM80.9269 45.5282C80.9269 46.769 81.7113 47.6821 82.9605 47.6821C84.2097 47.6821 84.9941 46.769 84.9941 45.5282C84.9941 44.2707 84.2097 43.3909 82.9605 43.3909C81.7113 43.3909 80.9269 44.2707 80.9269 45.5282Z" fill="white"/>
<path d="M90.7273 43.9933C90.4576 43.6696 90.0508 43.3874 89.4615 43.3874C88.9178 43.3874 88.4323 43.6365 88.4323 44.0806C88.4323 44.8152 89.4947 44.9229 90.0135 45.0308C91.0261 45.2798 91.8022 45.6783 91.8022 46.8362C91.8022 48.2182 90.5281 48.7742 89.308 48.7742C88.2912 48.7742 87.54 48.5127 86.9258 47.6828L87.8139 46.9565C88.1916 47.3259 88.6273 47.6828 89.308 47.6828C89.9014 47.6828 90.553 47.4337 90.553 46.8901C90.553 46.197 89.5902 46.0685 89.0714 45.9399C88.0754 45.7035 87.1831 45.3754 87.1831 44.1967C87.1831 42.8894 88.37 42.2836 89.5321 42.2836C90.3496 42.2836 91.2004 42.5696 91.6403 43.3002L90.7273 43.9933Z" fill="white"/>
<path d="M27.6115 56.0477C27.653 56.4461 27.9726 56.7075 28.3669 56.7075L29.1263 56.3174L29.6243 56.7075C29.2965 57.1184 28.8815 57.2595 28.4374 57.2595C27.5866 57.2595 26.9102 56.6869 26.9102 55.7863C26.9102 54.9148 27.5866 54.3171 28.4374 54.3171C29.2218 54.3171 29.753 54.869 29.753 55.8443V56.0479L27.6115 56.0477ZM29.0558 55.504C29.0432 55.0932 28.7777 54.8483 28.3378 54.8483C27.9145 54.8483 27.6655 55.0933 27.6115 55.504H29.0558Z" fill="white"/>
<path d="M30.4092 54.3825H31.0732V54.8351H31.0815C31.2102 54.5445 31.4799 54.3163 31.9489 54.3163C32.7042 54.3163 32.9698 54.8474 32.9698 55.4201V57.1965H32.2767V55.7769C32.2767 55.4615 32.2479 54.9429 31.758 54.9429C31.289 54.9429 31.1105 55.2832 31.1105 55.6691V57.1965H30.4092V54.3825Z" fill="white"/>
<path d="M33.4043 54.9774V54.3798H33.9853V53.5581H34.6867V54.3798H35.4586V54.9774H34.6867V56.2099L35.0727 56.6624L35.4586 56.5751V57.181L34.9025 57.2596C34.1596 57.2596 33.9853 56.9442 33.9853 56.2636V54.977L33.4043 54.9774Z" fill="white"/>
<path d="M36.4941 56.0477C36.5356 56.4461 36.8552 56.7075 37.2453 56.7075C37.598 56.7075 37.8304 56.5372 38.0048 56.3174L38.5069 56.7075C38.1791 57.1184 37.7599 57.2595 37.3158 57.2595C36.4692 57.2595 35.7803 56.6869 35.7803 55.7863C35.7803 54.9148 36.4692 54.3171 37.3158 54.3171C38.0961 54.3171 38.6356 54.869 38.6356 55.8443V56.0479L36.4941 56.0477ZM37.9259 55.504C37.9219 55.0932 37.6561 54.8483 37.2204 54.8483C36.7971 54.8483 36.5356 55.0933 36.4941 55.504H37.9259Z" fill="white"/>
<path d="M39.2852 54.3825H39.9865V54.8225H39.9991C40.1486 54.5028 40.4598 54.3163 40.825 54.3163L41.0782 54.3576V55.03L40.742 54.9801C40.0821 54.9801 39.9867 55.5404 39.9867 55.6898V57.1965H39.2853L39.2852 54.3825Z" fill="white"/>
<path d="M41.3906 54.9774V54.3798H41.9633V53.5581H42.6647V54.3798H43.4449V54.9774H42.6647V56.2099L43.0673 56.6624L43.4449 56.5751V57.181L42.8888 57.2596C42.1418 57.2596 41.9633 56.9442 41.9633 56.2636V54.977L41.3906 54.9774Z" fill="white"/>
<path d="M45.7882 56.815H45.7716C45.5683 57.1182 45.2404 57.255 44.871 57.255C44.344 57.255 43.8418 56.9894 43.8418 56.4166C43.8418 55.5078 44.9084 55.4496 45.6181 55.4496H45.7882V55.3668C45.7882 55.0223 45.5226 54.848 45.1449 54.848L44.3896 55.1384L44.0202 54.7608C44.3398 54.4498 44.7756 54.3167 45.2279 54.3167C46.419 54.3167 46.419 55.1925 46.419 55.5826V57.1928H45.7882V56.815ZM45.7509 55.9394H45.6056C45.2155 55.9394 44.539 55.9726 44.539 56.3627L45.037 56.7279C45.5226 56.7279 45.7509 56.4915 45.7509 56.0888V55.9394Z" fill="white"/>
<path d="M47.5202 52.9989L47.9768 53.4346L47.5202 53.8496L47.0762 53.4346L47.5202 52.9989ZM47.1758 54.3809H47.8896V57.1946H47.1758V54.3809Z" fill="white"/>
<path d="M48.6523 54.3825H49.3288V54.8351H49.3371C49.4658 54.5445 49.7314 54.3163 50.2003 54.3163C50.9598 54.3163 51.2337 54.8474 51.2337 55.4201V57.1965H50.5282V55.7769C50.5282 55.4615 50.5033 54.9429 50.0136 54.9429C49.5446 54.9429 49.3662 55.2832 49.3662 55.6691V57.1965H48.6523V54.3825Z" fill="white"/>
<path d="M51.9951 54.3825H52.6591V54.8225H52.6674C52.7961 54.5652 53.0659 54.3163 53.5307 54.3163C53.9664 54.3163 54.2735 54.4906 54.4146 54.8351C54.6222 54.4781 54.9168 54.3163 55.336 54.3163C56.0913 54.3163 56.3528 54.8474 56.3528 55.5155V57.1965H55.6555V55.6027C55.6555 55.2582 55.5435 54.9429 55.1285 54.9429C54.6886 54.9429 54.5226 55.3121 54.5226 55.6815V57.1965H53.8212V55.5155L53.3439 54.9429C52.8749 54.9429 52.6923 55.2832 52.6923 55.6691V57.1965H51.9951V54.3825Z" fill="white"/>
<path d="M57.6633 56.0477C57.7131 56.4461 58.0244 56.7075 58.4186 56.7075C58.7755 56.7075 59.0038 56.5372 59.1781 56.3174L59.6803 56.7075C59.3565 57.1184 58.9374 57.2595 58.4975 57.2595C57.6425 57.2595 56.9619 56.6869 56.9619 55.7863C56.9619 54.9148 57.6425 54.3171 58.4975 54.3171C59.2777 54.3171 59.8089 54.869 59.8089 55.8443V56.0479L57.6633 56.0477ZM59.1075 55.504C59.0992 55.0932 58.8336 54.8483 58.3979 54.8483C57.9829 54.8483 57.7214 55.0933 57.6633 55.504H59.1075Z" fill="white"/>
<path d="M60.46 54.3825H61.1281V54.8351H61.1364C61.2692 54.5445 61.5307 54.3163 61.9997 54.3163C62.7591 54.3163 63.033 54.8474 63.033 55.4201V57.1965H62.3234V55.7769C62.3234 55.4615 62.2945 54.9429 61.8088 54.9429C61.3439 54.9429 61.1655 55.2832 61.1655 55.6691V57.1965H60.46V54.3825Z" fill="white"/>
<path d="M63.457 54.9774V54.3798H64.0339V53.5581H64.7436V54.3798H65.5155V54.9774H64.7436V56.2099L65.1337 56.6624L65.5155 56.5751V57.181L64.9552 57.2596C64.2124 57.2596 64.0339 56.9442 64.0339 56.2636V54.977L63.457 54.9774Z" fill="white"/>
</svg>
