<svg width="143" height="60" viewBox="0 0 143 60" fill="none" xmlns="http://www.w3.org/2000/svg">
<path d="M50.3494 14.4872C50.5719 14.6883 50.7981 14.883 51.0271 15.0766C52.1443 16.0516 53.16 17.1219 54.0714 18.2899C54.1696 18.4115 54.2679 18.5328 54.3664 18.6541C57.2962 22.2801 59.3702 26.5327 58.9627 31.2882C58.894 31.8702 58.7846 32.4405 58.6519 33.0111C58.6339 33.0889 58.6159 33.1667 58.5974 33.2468C57.6826 37.0359 55.2586 39.972 51.9837 42.0027C49.0213 43.7779 45.7337 44.8075 42.341 45.3903C42.1712 45.4198 42.1712 45.4198 41.9981 45.4499C37.7712 46.1463 33.3507 45.803 29.194 44.8785C28.9053 44.8197 28.9053 44.8197 28.4878 44.8327C28.4756 44.947 28.4634 45.0613 28.4507 45.179C28.4329 45.3308 28.415 45.4825 28.3971 45.6342C28.3853 45.7469 28.3853 45.7469 28.3733 45.8619C28.3037 46.4312 28.1717 46.8324 27.7521 47.2317C27.0223 47.7105 26.1614 47.9271 25.2899 47.8016C24.6366 47.6088 24.1299 47.2953 23.7581 46.7212C23.3183 45.871 23.1624 44.9479 22.9909 44.0154C22.9744 43.9267 22.9579 43.838 22.9409 43.7466C22.9019 43.4944 22.9019 43.4944 22.884 43.0614C22.823 42.6813 22.823 42.6813 22.4502 42.4933C22.2969 42.4295 22.1425 42.3684 21.9872 42.3094C19.2088 41.1293 16.5473 39.2984 14.3275 37.2564C14.1058 37.0532 13.8797 36.8578 13.6502 36.6635C12.4642 35.6252 11.4477 34.4909 10.5011 33.2342C10.4307 33.1453 10.3603 33.0565 10.2877 32.9649C9.62515 32.1231 9.3081 31.265 9.40794 30.1868C9.64715 28.8837 10.4597 27.9714 11.4939 27.1918C14.6025 25.0881 19.4492 23.0854 23.2371 23.0854C23.2354 22.9767 23.2338 22.8679 23.2322 22.7559C23.2212 21.6871 23.2718 20.637 23.3767 19.5724C23.3841 19.4962 23.3914 19.42 23.399 19.3415C23.906 14.1363 23.906 14.1363 24.9128 12.9367C25.248 12.7137 25.248 12.7137 25.4994 12.7067C26.459 13.0769 27.0313 14.1816 27.4824 15.047C28.4296 17.273 28.4089 20.2781 28.3761 22.6394C28.4867 22.6025 28.5973 22.5657 28.7113 22.5278C31.4171 22.3358 34.1401 22.7119 36.7969 23.19C36.9102 23.2103 36.9102 23.2103 37.0258 23.2309C39.5746 23.6919 42.1257 24.3729 44.1285 26.0966C44.2068 26.1629 44.2852 26.2291 44.3659 26.2974C45.1159 26.9824 45.7536 27.985 45.8309 29.0171C45.8591 30.465 45.5384 31.5625 44.5753 32.6765C43.8316 33.3684 42.7725 33.9923 41.7387 34.0227C40.7351 33.9729 39.6268 33.6497 38.766 33.1226C38.6822 32.8299 38.6822 32.8299 38.6542 32.565C39.1933 32.0933 39.7975 31.8043 40.4348 31.4894C41.0401 31.1914 41.0401 31.1914 41.4472 30.6691C41.4649 30.3286 41.4649 30.3286 41.3355 30C38.8223 27.7017 33.8951 27.8885 30.7174 27.7006C30.4676 27.6855 30.2177 27.6703 29.9679 27.6551C29.3628 27.6184 28.7578 27.5822 28.1527 27.5464C28.1555 27.6775 28.1583 27.8086 28.1612 27.9436C28.1877 29.187 28.214 30.4304 28.2401 31.6738C28.2535 32.3129 28.267 32.9519 28.2807 33.5909C28.2939 34.2092 28.3069 34.8275 28.3198 35.4457C28.3247 35.68 28.3297 35.9143 28.3347 36.1486C28.3651 37.5566 28.3831 38.9634 28.3761 40.3717C28.8129 40.4336 29.2498 40.4951 29.6867 40.5562C29.9067 40.587 30.1266 40.6182 30.3465 40.6494C33.4993 41.0888 36.8561 41.1819 39.9949 40.5948C40.1139 40.5726 40.2329 40.5504 40.3556 40.5276C44.5155 39.7269 49.0576 38.2861 51.6315 34.6805C53.001 32.5749 53.4424 30.0179 52.9398 27.556C52.3957 25.2701 51.276 23.2449 49.8261 21.4126C49.7172 21.2741 49.7172 21.2741 49.6061 21.1327C48.9836 20.3559 48.313 19.6452 47.6057 18.9451C47.5033 18.842 47.4009 18.739 47.2954 18.6328C46.6096 17.9501 45.8934 17.328 45.1339 16.7286C45.0021 16.6222 44.8703 16.5158 44.7386 16.4092C36.5182 9.89634 26.0617 5.8442 15.6402 4.79549C15.498 4.77972 15.498 4.77972 15.3529 4.76363C14.1973 4.64892 13.0368 4.65689 11.8767 4.65608C11.7648 4.65597 11.653 4.65586 11.5378 4.65574C9.15259 4.65736 6.89145 4.84983 4.58003 5.46463C4.28231 5.53979 3.9843 5.61372 3.68628 5.68768C3.68628 5.76129 3.68628 5.83489 3.68628 5.91073C3.88026 5.95321 3.88026 5.95321 4.07817 5.99655C4.25012 6.03528 4.42206 6.07405 4.59399 6.11287C4.67896 6.13134 4.76393 6.14981 4.85147 6.16885C5.99317 6.42921 5.99317 6.42921 6.36753 6.80292C6.40244 7.06779 6.40244 7.06779 6.36753 7.36054C5.96926 7.80782 5.31687 7.89255 4.74363 7.94319C2.13473 8.05196 2.13473 8.05196 1.1438 7.32874C0.836355 7.0277 0.743036 6.72928 0.71875 6.315C0.777597 5.45103 1.28186 4.80809 1.75913 4.11937C1.80311 4.05494 1.84709 3.99051 1.8924 3.92412C2.68312 2.8182 3.52756 2.39778 4.8314 2.0492C4.98538 2.00644 5.13935 1.96367 5.29333 1.92088C14.1703 -0.501276 37.5764 2.38786 50.3494 14.4872ZM20.1578 27.9577C20.0373 27.9725 20.0373 27.9725 19.9144 27.9876C15.3105 28.3714 15.3105 28.3714 11.3626 30.3851C11.1427 30.7117 11.1068 30.9251 11.181 31.313C11.4096 31.8688 11.864 32.2643 12.2886 32.6765C12.387 32.7731 12.4853 32.8698 12.5867 32.9693C14.8433 35.107 19.425 38.9219 22.6785 38.9219C22.7979 38.5643 22.822 38.2685 22.846 37.8925C22.8552 37.7515 22.8644 37.6105 22.8738 37.4652C22.8832 37.3118 22.8926 37.1584 22.9019 37.0051C22.9092 36.8877 22.9092 36.8877 22.9165 36.7679C22.9502 36.222 22.9821 35.6761 23.0136 35.1301C23.024 34.9571 23.024 34.9571 23.0347 34.7806C23.1718 32.4464 23.136 30.1066 23.1253 27.7695C22.1249 27.7376 21.1487 27.8339 20.1578 27.9577Z" fill="white"/>
<path d="M130.711 21.3011C130.94 21.7331 130.954 22.0669 130.913 22.5487C130.905 22.6653 130.896 22.7819 130.887 22.902C130.701 24.0682 130.196 25.0312 129.635 26.0548C129.554 26.205 129.473 26.3552 129.392 26.5055C129.02 27.1938 128.641 27.8782 128.249 28.5556C127.262 30.2607 126.591 32.0178 126.689 34.0148C126.759 33.9106 126.83 33.8064 126.903 33.699C128.009 32.0741 129.14 30.4669 130.433 28.9836C130.687 28.6897 130.926 28.3887 131.165 28.0831C132.837 26.0427 135.288 23.476 138.079 23.1595C139.101 23.1456 139.9 23.3276 140.675 24.0195C142.002 25.4682 142.282 27.3695 142.26 29.2611C142.258 29.4027 142.257 29.5442 142.256 29.6901C142.19 33.6627 140.208 36.6819 137.478 39.4159C135.57 41.2153 133.152 42.3016 130.515 42.2863C130.036 42.2616 129.609 42.1697 129.147 42.0446C129.119 42.1413 129.119 42.1413 129.091 42.24C128.864 43.0224 128.585 43.7788 128.295 44.5399C126.747 48.6737 125.7 52.8471 125.021 57.2005C125.006 57.2942 124.991 57.3879 124.976 57.4844C124.951 57.6477 124.927 57.8111 124.904 57.9748C124.837 58.4208 124.724 58.744 124.454 59.1078C124.082 59.3553 123.91 59.3617 123.476 59.2933C122.248 58.9308 121.353 57.7767 120.753 56.7135C119.475 54.3018 119.827 51.4265 120.433 48.8475C120.458 48.7366 120.484 48.6257 120.511 48.5114C121.266 45.3447 122.379 42.0117 123.913 39.125C124.066 38.7953 123.992 38.6029 123.896 38.2527C123.809 38.066 123.721 37.8802 123.631 37.6951C122.518 35.2867 122.844 32.3518 123.707 29.9146C124.605 27.6069 125.835 25.5048 127.471 23.6431C127.553 23.5485 127.636 23.4539 127.721 23.3564C129.873 20.9295 129.873 20.9295 130.711 21.3011ZM138.655 27.3408C137.753 27.8744 137.085 28.764 136.438 29.5735C136.183 29.8909 135.919 30.1995 135.654 30.5088C134.108 32.3646 132.409 34.5539 131.493 36.8029C131.53 36.8765 131.566 36.9501 131.604 37.026C134.528 36.4011 136.845 35.0637 138.502 32.5203C139.347 31.1547 139.801 29.6018 139.648 27.9925C139.527 27.5899 139.527 27.5899 139.313 27.3234C138.978 27.1717 138.978 27.1717 138.655 27.3408Z" fill="white"/>
<path d="M87.6994 22.974C87.9229 23.1971 87.9229 23.1971 87.9717 23.5944C87.9537 24.2531 87.6381 24.791 87.2015 25.2725C86.4745 25.9235 85.6039 25.9309 84.6782 26.0017C84.5459 26.0126 84.4135 26.0234 84.2771 26.0346C83.9938 26.0578 83.7104 26.0807 83.427 26.1033C82.6885 26.1624 81.9502 26.2246 81.2119 26.2871C80.9939 26.3055 80.9939 26.3055 80.7715 26.3243C78.5266 26.516 76.2897 26.7626 74.0627 27.1074C73.9537 27.1242 73.8447 27.1409 73.7324 27.1582C73.0433 27.2713 72.3874 27.4419 71.7236 27.658C71.6868 27.8421 71.6499 28.0261 71.6119 28.2157C73.6965 28.5827 75.7424 28.8528 77.8561 28.9622C84.1525 29.2885 84.1525 29.2885 86.1419 31.4024C87.3208 32.8728 87.3552 34.8586 87.1893 36.6562C87.0092 38.0311 86.5936 39.0763 85.4982 39.9684C83.5296 41.352 80.69 41.9697 78.315 42.0447C78.1931 42.0491 78.0711 42.0536 77.9454 42.0582C75.07 42.1126 72.3713 41.326 70.1596 39.4796C70.0665 39.4061 69.9735 39.3327 69.8777 39.257C68.9945 38.5292 68.3494 37.5931 68.2189 36.4353C68.1983 35.3664 68.3413 34.6522 69.0694 33.8507C70.4432 32.537 72.1205 32.337 73.958 32.3421C75.3075 32.3815 76.6303 32.56 77.952 32.83C78.0595 32.8519 78.1671 32.8739 78.278 32.8965C79.2215 33.1021 80.2075 33.3501 81.0033 33.9173C81.1227 34.0006 81.1227 34.0006 81.2446 34.0855C81.6589 34.4037 81.6589 34.4037 81.7085 34.7747C81.6542 35.2355 81.5614 35.3711 81.2197 35.6878C79.736 36.6079 77.8593 36.7024 76.1658 36.3957C75.2814 36.1785 74.482 35.8248 73.6717 35.4186C73.0971 35.1539 72.5614 34.9866 71.9261 34.9977C71.8347 34.9984 71.7432 34.9992 71.649 34.9999C71.397 35.018 71.1805 35.0482 70.9416 35.1302C70.8029 35.3421 70.8029 35.3421 70.7182 35.5763C70.6813 35.6499 70.6444 35.7235 70.6065 35.7993C70.5481 36.2359 70.5629 36.41 70.8299 36.7682C71.9381 37.621 73.4952 37.6254 74.8378 37.6185C74.9688 37.6179 75.0998 37.6173 75.2348 37.6166C77.8826 37.5805 81.0531 37.2074 83.1718 35.4599C83.5178 35.1049 83.6615 34.8745 83.7613 34.3843C83.6527 33.9053 83.5077 33.7564 83.1189 33.4573C82.4726 33.0697 81.8128 32.8816 81.0801 32.7254C80.9201 32.6903 80.9201 32.6903 80.757 32.6545C78.7152 32.218 76.6818 32.0245 74.5988 31.9355C68.8077 31.6861 68.8077 31.6861 67.789 30.637C67.169 29.695 67.2499 28.4772 67.4434 27.4032C67.7135 26.124 68.1983 25.2173 69.2562 24.4212C71.1819 23.19 73.4181 22.6383 75.6338 22.1934C75.7232 22.1746 75.8126 22.1559 75.9047 22.1366C79.229 21.4618 84.6939 21.1766 87.6994 22.974Z" fill="white"/>
<path d="M119.26 21.8169C119.445 21.8126 119.445 21.8126 119.634 21.8081C120.68 21.8059 121.591 22.0434 122.371 22.7701C123.027 23.4927 123.777 24.4488 123.848 25.4554C123.785 25.8736 123.785 25.8736 123.582 26.1084C123.057 26.4202 122.535 26.4709 121.934 26.5497C121.739 26.577 121.739 26.577 121.54 26.6048C119.173 26.9195 116.783 27.0682 114.4 27.2119C114.013 28.3712 114.013 28.3712 113.618 29.5539C113.766 29.5171 113.913 29.4803 114.065 29.4424C114.233 29.4315 114.401 29.4259 114.569 29.4244C114.667 29.4234 114.766 29.4223 114.868 29.4212C114.974 29.4207 115.08 29.4202 115.189 29.4198C115.299 29.4191 115.408 29.4185 115.521 29.4178C115.753 29.4168 115.984 29.416 116.216 29.4156C116.57 29.4145 116.924 29.4111 117.278 29.4076C117.503 29.4068 117.729 29.4062 117.954 29.4058C118.112 29.4037 118.112 29.4037 118.274 29.4016C118.823 29.4035 119.209 29.4124 119.651 29.777C119.973 30.2824 119.9 30.8732 119.875 31.4498C119.873 31.5421 119.87 31.6344 119.868 31.7295C119.842 32.1911 119.826 32.3877 119.497 32.7324C119.062 32.9809 118.71 33.0327 118.216 33.0648C118.082 33.0737 117.947 33.0826 117.809 33.0918C117.664 33.101 117.519 33.1102 117.37 33.1197C117.22 33.1295 117.07 33.1393 116.921 33.1492C116.527 33.1751 116.133 33.2004 115.739 33.2256C115.337 33.2515 114.934 33.2778 114.532 33.3041C113.744 33.3557 112.955 33.4067 112.166 33.4573C112.04 33.8758 111.915 34.2944 111.79 34.7131C111.727 34.9252 111.663 35.1371 111.6 35.349C111.56 35.4831 111.52 35.6172 111.479 35.7553C111.423 35.9401 111.423 35.9401 111.367 36.1287C111.284 36.4269 111.216 36.7218 111.16 37.0261C111.288 37.0008 111.415 36.9755 111.545 36.9495C112.028 36.8535 112.512 36.7583 112.995 36.6632C113.202 36.6224 113.409 36.5815 113.615 36.5403C114.725 36.3196 115.834 36.1106 116.952 35.9417C117.087 35.9214 117.087 35.9214 117.223 35.9006C119.269 35.602 119.269 35.602 119.937 35.947C120.176 36.1418 120.358 36.3355 120.545 36.58C120.595 36.6428 120.645 36.7056 120.697 36.7703C120.988 37.196 121.075 37.6091 121.048 38.1125C120.796 39.2462 119.484 39.9772 118.579 40.5632C117.119 41.4867 115.58 42.2439 113.953 42.8253C113.824 42.8716 113.695 42.9179 113.562 42.9656C112.167 43.4024 110.393 43.6237 109.038 42.9717C108.848 42.8545 108.661 42.7321 108.479 42.6023C108.362 42.5241 108.244 42.4458 108.123 42.3653C107.114 41.4327 106.398 40.304 106.315 38.9276C106.264 37.4355 106.414 35.9756 106.973 34.5812C107.367 33.5897 107.363 33.033 107.036 32.0436C106.85 31.4716 106.813 31.0362 107.041 30.467C107.504 29.9277 108.055 29.8463 108.73 29.7896C108.827 29.7834 108.827 29.7834 108.926 29.777C108.951 29.6916 108.976 29.6062 109.002 29.5182C109.203 28.9579 109.463 28.4305 109.722 27.895C109.774 27.7863 109.827 27.6776 109.881 27.5657C110.009 27.2989 110.138 27.0323 110.267 26.7658C110.193 26.7604 110.119 26.7551 110.043 26.7495C109.05 26.6661 108.297 26.4223 107.599 25.6785C107.174 25.1457 106.837 24.575 106.776 23.8871C107.004 23.4876 107.394 23.3562 107.809 23.1971C108.328 23.0584 108.852 22.9592 109.38 22.8625C109.455 22.8484 109.53 22.8343 109.608 22.8198C112.791 22.2242 116.021 21.8603 119.26 21.8169Z" fill="white"/>
<path d="M98.5359 19.0706C99.2651 18.9615 99.6155 19.0703 100.212 19.5098C100.438 19.6942 100.662 19.8823 100.882 20.0744C100.971 20.152 101.06 20.2296 101.152 20.3096C103.831 22.8233 105.24 27.0105 105.374 30.6077C105.387 31.1533 105.388 31.6987 105.386 32.2444C105.385 32.3405 105.385 32.4366 105.385 32.5356C105.38 33.9408 105.352 35.3197 105.016 36.6915C104.987 36.8112 104.987 36.8112 104.958 36.9334C104.621 38.2765 104.105 39.5073 102.936 40.3299C102.127 40.796 101.345 40.918 100.435 40.7063C98.109 40.0371 96.5674 36.5278 95.5111 34.6316C95.0721 33.8326 94.655 33.0217 94.2422 32.209C93.8066 31.1948 93.8066 31.1948 93.0617 30.4461C92.9325 32.1148 92.8269 33.7777 92.7824 35.4508C92.7533 36.4891 92.7134 37.524 92.6288 38.5595C92.6214 38.6582 92.614 38.757 92.6063 38.8587C92.5304 39.705 92.4112 40.83 91.8328 41.487C91.315 41.8561 90.8108 42.0079 90.1758 41.9762C89.5095 41.8576 89.0283 41.4273 88.593 40.9294C88.194 39.9361 88.0621 38.8699 88.0344 37.8067C88.0277 37.5954 88.0277 37.5954 88.0209 37.3798C87.9411 33.5746 88.0657 26.997 90.6611 23.9241C91.0749 23.5024 91.4085 23.2845 92.0004 23.2528C92.8297 23.2983 93.3354 23.8667 93.8878 24.433C95.4567 26.1869 96.771 28.2098 97.9774 30.2231C99.0333 32.0006 99.0333 32.0006 100.177 33.7221C100.221 33.7857 100.266 33.8493 100.311 33.9149C100.531 34.2178 100.628 34.3394 100.994 34.461C101.282 30.765 99.8598 26.7377 98.8534 23.2072C97.9869 20.1668 97.9869 20.1668 98.5359 19.0706Z" fill="white"/>
<path d="M71.2973 4.51064C71.5553 4.73154 71.7636 4.95547 71.9467 5.24165C71.9467 5.31525 71.9467 5.38886 71.9467 5.4647C72.0564 5.46707 72.0564 5.46707 72.1684 5.46949C73.324 5.52978 74.3851 5.8833 75.2289 6.6993C75.8787 7.47146 75.9943 8.38326 75.9686 9.36804C75.6962 11.8983 73.9283 14.0837 72.0305 15.6831C69.1971 17.9017 66.3105 19.048 62.6741 18.8476C62.0046 18.7651 61.3959 18.5437 60.7748 18.29C60.7518 18.3636 60.7288 18.4372 60.705 18.513C60.4383 19.0939 60.0806 19.607 59.5459 19.9628C58.7773 20.0509 58.7773 20.0509 58.3148 19.7254C57.765 19.2358 57.4003 18.5487 57.1998 17.8439C57.1819 17.413 57.1819 17.413 57.2068 16.9865C57.2511 16.1795 57.0404 15.8491 56.5348 15.2405C55.7692 14.2487 55.7606 13.0171 55.8592 11.8216C56.0811 10.3272 57.0954 8.89227 58.0936 7.8067C58.1879 7.70348 58.2822 7.60026 58.3794 7.49391C61.0857 4.66298 67.6732 1.83714 71.2973 4.51064ZM60.1167 9.86293C59.4495 10.6721 58.8147 11.6289 58.9175 12.7068C58.9406 12.8195 58.9636 12.9322 58.9873 13.0483C59.0611 13.0483 59.1348 13.0483 59.2108 13.0483C59.346 12.8796 59.4723 12.7037 59.5948 12.5256C60.722 10.945 62.0427 9.41573 63.6224 8.27197C63.6781 8.22884 63.7338 8.18571 63.7912 8.14128C63.7912 8.10447 63.7912 8.06767 63.7912 8.02975C62.4035 7.96509 61.036 8.89967 60.1167 9.86293ZM64.7967 12.2677C64.7097 12.3486 64.6227 12.4295 64.5331 12.5129C64.0154 13.0086 63.559 13.5406 63.1139 14.1008C63.0592 14.1695 63.0045 14.2382 62.9481 14.309C62.658 14.6433 62.658 14.6433 62.5623 15.0558C65.1736 15.5097 67.8895 15.119 70.1614 13.7319C71.2682 12.9427 72.3704 11.7898 72.8051 10.4754C72.8894 9.96204 72.9747 9.40318 72.7274 8.92761C72.4892 8.63268 72.3083 8.48464 71.9467 8.36432C69.1417 8.13851 66.6834 10.4731 64.7967 12.2677Z" fill="white"/>
<path d="M63.5675 22.4164C64.431 23.0624 65.019 24.2598 65.2111 25.3005C65.2282 25.451 65.2438 25.6016 65.2581 25.7524C65.2668 25.8344 65.2754 25.9163 65.2844 26.0008C65.3741 26.8845 65.4277 27.7701 65.4746 28.6569C65.4843 28.8335 65.4941 29.0101 65.5038 29.1867C65.5345 29.7482 65.5635 30.3097 65.5924 30.8713C65.5999 31.0144 65.5999 31.0144 65.6075 31.1603C65.7305 33.5238 65.8459 35.8855 65.8438 38.2528C65.8441 38.397 65.8441 38.397 65.8444 38.5441C65.8437 41.3832 65.8437 41.3832 65.355 42.1562C64.5976 42.6098 63.8176 42.7103 62.954 42.5509C62.3029 42.3829 61.7306 42.1622 61.3332 41.5985C60.2004 38.6694 60.75 34.7045 60.8578 31.6509C60.8723 31.2346 60.8857 30.8183 60.8989 30.4019C60.9423 29.1066 60.9997 27.8142 61.1045 26.5223C61.1129 26.4166 61.1213 26.3109 61.13 26.202C61.3865 23.2659 61.3865 23.2659 62.3666 22.4234C62.7983 22.2568 63.1416 22.2489 63.5675 22.4164Z" fill="white"/>
</svg>
