<svg width="119" height="64" viewBox="0 0 119 64" fill="none" xmlns="http://www.w3.org/2000/svg">
<path fill-rule="evenodd" clip-rule="evenodd" d="M1.48633 1.74109H117.559V50.9411H1.48633V1.74109Z" stroke="white" stroke-width="2"/>
<path d="M26.4213 62.58V58.6409H24.3076H28.4182" stroke="white" stroke-width="2"/>
<path d="M44.5123 58.0885C44.5123 62.717 44.9444 62.3339 42.5449 62.3339C40.2994 62.3323 40.7522 62.6989 40.7522 58.0945" stroke="white" stroke-width="2"/>
<path fill-rule="evenodd" clip-rule="evenodd" d="M58.2012 58.6943H61.0499C61.0499 58.6943 61.9479 58.622 61.9825 60.4839C62.0145 62.207 61.0499 62.1663 61.0499 62.1663H58.2012V58.6943Z" stroke="white" stroke-width="2"/>
<path d="M75.4219 58.4596L75.4824 62.6267" stroke="white" stroke-width="2.0599"/>
<path fill-rule="evenodd" clip-rule="evenodd" d="M89.2306 60.701C89.2523 58.5461 88.9442 58.8966 91.1601 58.8788C93.4954 58.8601 93.2164 58.6106 93.2293 60.7109C93.2411 62.6376 93.5581 62.318 91.1601 62.3446C88.8854 62.3699 89.2118 62.5642 89.2306 60.701Z" stroke="white" stroke-width="2.01554"/>
<path d="M106.764 61.8769V62.0771C106.747 62.4169 106.754 62.4204 107.114 62.411L109.95 62.4332C110.314 62.4356 110.341 62.5374 110.343 62.0772L110.342 61.0858C110.336 60.595 110.423 60.5931 109.8 60.5971C109.8 60.5971 107.317 60.5939 106.987 60.5971C106.741 60.5574 106.811 60.5028 106.795 60.2078V59.2397C106.784 58.9788 106.798 59.0278 107.103 59.0171L109.961 59.0171C110.353 59.0109 110.356 59.0235 110.343 59.3398V59.4177" stroke="white" stroke-width="2" stroke-linecap="square"/>
<path d="M8.58233 61.3593L8.58231 61.6264C8.55478 62.0441 8.51968 61.8918 8.87971 61.8823L11.7263 61.8935C12.0902 61.8959 12.1177 61.9976 12.1193 61.5374L12.1178 60.546C12.1126 60.0552 12.1988 60.0387 11.5758 60.0427C11.5758 60.0427 9.09271 60.054 8.7628 60.0574C8.51693 60.0177 8.58771 59.963 8.57163 59.668L8.53974 58.6999C8.52787 58.4391 8.57372 58.488 8.87962 58.4773L11.705 58.4773C12.0974 58.4711 12.1004 58.4837 12.0875 58.8V58.8779" stroke="white" stroke-width="2" stroke-linecap="square"/>
<path d="M101.688 5.5865H108.258V39.2821H113.829V47.7833H101.688V5.5865Z" fill="white"/>
<path d="M56.4057 25.6802C61.1196 25.3711 60.6911 19.0339 60.6911 19.0339C59.9768 12.8512 56.4057 13.1603 56.4057 13.1603V25.6802ZM41.264 35.418L39.2642 22.5889L37.55 35.418H41.264ZM5.12402 47.6288V5.58653H13.9805L17.1231 23.2072L20.6942 5.58653H29.265V43.4555L34.836 5.58653H43.5496L48.9777 43.4555V5.74109H60.5482C60.5482 5.74109 64.5479 6.51393 66.5478 12.5421L65.6907 5.58653H72.6901L75.9756 27.3805L79.4039 5.74109H99.1166V13.624H93.2599V22.2798H98.8309V31.0901H93.4028V39.1276H99.1166V47.6288H86.4033V7.1322L79.8324 47.6288H71.9759L67.8334 20.7341C67.8334 20.7341 67.1191 28.1533 63.2623 31.5538L68.2619 47.6288H61.4053L56.5485 33.5632V47.6288H42.6925L41.9783 43.61H36.693L35.5502 47.6288H22.4084V32.1721L18.9801 47.6288H15.4089L12.2663 32.3266V47.4742L5.12402 47.6288Z" fill="white"/>
</svg>
