<svg width="120" height="64" viewBox="0 0 120 64" fill="none" xmlns="http://www.w3.org/2000/svg">
<path fill-rule="evenodd" clip-rule="evenodd" d="M1.96387 1.9353H118.037V51.1353H1.96387V1.9353Z" stroke="white" stroke-width="2"/>
<path d="M26.8989 62.7742V58.8351H24.7852H28.8957" stroke="white" stroke-width="2"/>
<path d="M44.9899 58.2827C44.9899 62.9112 45.4219 62.5281 43.0224 62.5281C40.777 62.5265 41.2298 62.8931 41.2298 58.2887" stroke="white" stroke-width="2"/>
<path fill-rule="evenodd" clip-rule="evenodd" d="M58.6787 58.8886H61.5275C61.5275 58.8886 62.4254 58.8163 62.46 60.6782C62.4921 62.4012 61.5275 62.3606 61.5275 62.3606H58.6787V58.8886Z" stroke="white" stroke-width="2"/>
<path d="M75.8994 58.6538L75.96 62.8209" stroke="white" stroke-width="2.0599"/>
<path fill-rule="evenodd" clip-rule="evenodd" d="M89.7081 60.8952C89.7299 58.7403 89.4217 59.0908 91.6377 59.073C93.9729 59.0543 93.6939 58.8048 93.7068 60.9051C93.7186 62.8318 94.0356 62.5123 91.6377 62.5388C89.363 62.5641 89.6893 62.7584 89.7081 60.8952Z" stroke="white" stroke-width="2.01554"/>
<path d="M107.241 62.0711V62.2713C107.224 62.6111 107.232 62.6146 107.592 62.6052L110.428 62.6275C110.792 62.6299 110.819 62.7316 110.821 62.2714L110.819 61.28C110.814 60.7892 110.9 60.7873 110.277 60.7913C110.277 60.7913 107.794 60.7881 107.464 60.7913C107.218 60.7516 107.289 60.697 107.273 60.402V59.4339C107.261 59.1731 107.275 59.222 107.581 59.2113L110.438 59.2113C110.831 59.2051 110.833 59.2177 110.821 59.534V59.6119" stroke="white" stroke-width="2" stroke-linecap="square"/>
<path d="M9.05987 61.5535L9.05985 61.8206C9.03232 62.2383 8.99721 62.086 9.35725 62.0765L12.2039 62.0877C12.5677 62.0901 12.5952 62.1919 12.5968 61.7316L12.5953 60.7402C12.5901 60.2494 12.6763 60.2329 12.0533 60.2369C12.0533 60.2369 9.57025 60.2482 9.24034 60.2516C8.99447 60.2119 9.06525 60.1572 9.04916 59.8622L9.01728 58.8941C9.00541 58.6333 9.05126 58.6822 9.35716 58.6715L12.1825 58.6715C12.575 58.6653 12.5779 58.6779 12.565 58.9942V59.0721" stroke="white" stroke-width="2" stroke-linecap="square"/>
<path d="M102.165 5.78072H108.736V39.4763H114.307V47.9775H102.165V5.78072Z" fill="white"/>
<path d="M56.8832 25.8745C61.5972 25.5653 61.1686 19.2281 61.1686 19.2281C60.4544 13.0454 56.8832 13.3545 56.8832 13.3545V25.8745ZM41.7416 35.6122L39.7417 22.7831L38.0276 35.6122H41.7416ZM5.60156 47.823V5.78075H14.458L17.6006 23.4014L21.1718 5.78075H29.7425V43.6497L35.3135 5.78075H44.0271L49.4553 43.6497V5.93531H61.0258C61.0258 5.93531 65.0255 6.70815 67.0253 12.7363L66.1682 5.78075H73.1677L76.4531 27.5747L79.8814 5.93531H99.5942V13.8182H93.7375V22.474H99.3085V31.2843H93.8803V39.3218H99.5942V47.823H86.8809V7.32641L80.31 47.823H72.4534L68.3109 20.9283C68.3109 20.9283 67.5967 28.3475 63.7398 31.748L68.7395 47.823H61.8828L57.0261 33.7574V47.823H43.17L42.4558 43.8043H37.1705L36.0277 47.823H22.8859V32.3663L19.4576 47.823H15.8865L12.7439 32.5209V47.6684L5.60156 47.823Z" fill="white"/>
</svg>
