<svg width="41" height="36" viewBox="0 0 41 36" fill="none" xmlns="http://www.w3.org/2000/svg">
<path d="M12.8993 12.8048L14.5449 11.5542L14.0529 10.8935L12.4073 12.1441L12.8993 12.8048Z" fill="white"/>
<path d="M11.5385 12.3934L14.5908 10.0738C14.6367 10.039 14.6502 9.97907 14.6212 9.94L14.6013 9.91331C14.5722 9.87425 14.5114 9.87083 14.4656 9.90568L11.4133 12.2252C11.3675 12.2601 11.3539 12.32 11.383 12.3591L11.4028 12.3858C11.4319 12.4248 11.4927 12.4283 11.5385 12.3934Z" fill="white"/>
<path d="M13.5883 10.179L6.75032 0.995571L5.06334 2.2776L11.9013 11.461L13.5883 10.179ZM6.12882 1.9347L6.68803 1.78702L6.39254 2.28888L5.83333 2.43656L6.12882 1.9347ZM6.54026 2.48728L7.09948 2.3396L6.80398 2.84146L6.24477 2.98914L6.54026 2.48728ZM6.95171 3.03985L7.51093 2.89217L7.21543 3.39403L6.65622 3.54171L6.95171 3.03985ZM7.36316 3.59244L7.92236 3.44475L7.62686 3.94661L7.06765 4.09429L7.36316 3.59244ZM7.77461 4.145L8.33383 3.99732L8.03833 4.49918L7.47912 4.64686L7.77461 4.145ZM8.18606 4.69758L8.74528 4.5499L8.44978 5.05176L7.89057 5.19944L8.18606 4.69758ZM8.59751 5.25016L9.15673 5.10248L8.86123 5.60434L8.30202 5.75201L8.59751 5.25016ZM9.00895 5.80273L9.56816 5.65505L9.27267 6.15691L8.71346 6.30459L9.00895 5.80273ZM9.4204 6.35531L9.97962 6.20763L9.68412 6.70949L9.12491 6.85717L9.4204 6.35531ZM9.83185 6.90789L10.3911 6.7602L10.0956 7.26206L9.53636 7.40974L9.83185 6.90789ZM10.2433 7.46046L10.8025 7.31277L10.507 7.81463L9.94781 7.96231L10.2433 7.46046ZM10.6547 8.01304L11.214 7.86535L10.9185 8.36721L10.3593 8.51489L10.6547 8.01304ZM11.0662 8.56561L11.6254 8.41793L11.3299 8.91979L10.7707 9.06747L11.0662 8.56561ZM11.4776 9.11819L12.0369 8.97051L11.7414 9.47236L11.1822 9.62005L11.4776 9.11819ZM11.8891 9.67077L12.4483 9.52308L12.1528 10.0249L11.5936 10.1726L11.8891 9.67077ZM12.3005 10.2233L12.8598 10.0757L12.5643 10.5775L12.005 10.7252L12.3005 10.2233Z" fill="white"/>
<path d="M6.57255 0.767327L6.32951 0.440925C6.22492 0.318252 6.06673 0.248996 5.88951 0.24829C5.71228 0.247584 5.53042 0.315485 5.38366 0.437157L4.9012 0.803805C4.7448 0.91252 4.62979 1.07022 4.58133 1.24244C4.53286 1.41467 4.55487 1.58742 4.64254 1.72295L4.88558 2.04935L6.57255 0.767327Z" fill="white"/>
<path d="M13.7136 12.6078C13.7568 12.6768 13.7802 12.7576 13.7818 12.8435C13.7842 12.9359 13.8094 13.0229 13.8556 13.0974C13.9045 13.1404 13.9641 13.1712 14.0305 13.1879C14.1364 13.216 14.2292 13.2699 14.301 13.345C14.3492 13.4214 14.3756 13.511 14.378 13.6063C14.3819 13.6397 14.3859 13.6734 14.3918 13.7055C14.3939 13.7165 14.398 13.7268 14.404 13.7359C14.4292 13.7751 14.4539 13.8148 14.4783 13.8552C14.4859 13.8682 14.4969 13.8788 14.5105 13.8859C14.5478 13.9034 14.5863 13.9189 14.626 13.9322C14.7276 13.9591 14.817 14.0106 14.8864 14.0822C14.9362 14.1602 14.9635 14.2518 14.9662 14.3493C14.9678 14.4298 14.9887 14.5059 15.0273 14.5717C15.0795 14.6191 15.1439 14.6529 15.216 14.6709C15.3165 14.6969 15.4048 14.7474 15.4733 14.8181C15.5239 14.8967 15.5518 14.9891 15.5548 15.0876C15.5566 15.167 15.5774 15.242 15.6154 15.3071C15.6683 15.3549 15.7335 15.3891 15.8064 15.4071C15.9062 15.4326 15.9941 15.4824 16.0624 15.5522C16.1136 15.631 16.142 15.7239 16.1453 15.8229C16.1474 15.9017 16.1681 15.976 16.206 16.0405C16.2593 16.0886 16.325 16.1228 16.3985 16.1407C16.498 16.1658 16.5857 16.2151 16.654 16.2843C16.7057 16.3632 16.7346 16.4563 16.7382 16.5556C16.7405 16.6339 16.7613 16.7078 16.7992 16.7718C16.8528 16.8199 16.919 16.8541 16.9929 16.8718C17.0922 16.8965 17.1798 16.9453 17.2482 17.014C17.3004 17.0929 17.3297 17.1861 17.3337 17.2857C17.3362 17.3636 17.3573 17.4372 17.3952 17.5008C17.4492 17.549 17.5158 17.5831 17.59 17.6006C17.6893 17.625 17.7769 17.6733 17.8455 17.7415C17.8981 17.8204 17.9279 17.9137 17.9323 18.0134C17.9243 18.0932 17.9458 18.1685 17.993 18.2259C18.0402 18.2834 18.1101 18.3193 18.1902 18.3271C18.2894 18.351 18.3771 18.3989 18.4458 18.4667C18.4989 18.5455 18.5292 18.6387 18.534 18.7385C18.5262 18.8182 18.5481 18.8934 18.5956 18.9506C18.6431 19.0078 18.7132 19.0433 18.7934 19.0508C18.8709 19.072 18.9426 19.105 19.0063 19.1486C19.0194 19.1498 19.0324 19.1515 19.0456 19.152L19.0419 19.1699C19.0411 19.1731 19.0409 19.1763 19.0402 19.1795C19.0433 19.1828 19.0466 19.1857 19.0495 19.1892C19.103 19.2678 19.1337 19.3609 19.1389 19.4607C19.1315 19.5404 19.1537 19.6155 19.2015 19.6724C19.2493 19.7294 19.3197 19.7645 19.4 19.7716C19.4992 19.7947 19.5872 19.8417 19.6564 19.9086C19.7104 19.987 19.7415 20.0801 19.7471 20.1799C19.7402 20.2596 19.7628 20.3345 19.8109 20.3912C19.8591 20.4479 19.9296 20.4828 20.01 20.4896C20.1094 20.5122 20.1975 20.5588 20.2671 20.6254C20.3216 20.7035 20.3532 20.7965 20.3593 20.8963C20.3527 20.9761 20.3757 21.0508 20.4242 21.1072C20.4727 21.1637 20.5435 21.1982 20.6241 21.2046C20.7274 21.2181 20.8176 21.2651 20.8811 21.3382C20.9445 21.4113 20.9777 21.5066 20.9756 21.6096C20.9787 21.6294 20.9819 21.649 20.9853 21.6679C20.988 21.6824 20.9942 21.6956 21.0033 21.7065C21.0651 21.7812 21.1269 21.8559 21.1889 21.9304C21.1954 21.9383 21.2033 21.945 21.2124 21.9502C21.2521 21.9727 21.2941 21.9941 21.3372 22.016C21.4666 22.0625 21.5789 22.1381 21.6661 22.2373C21.7533 22.3365 21.8133 22.4568 21.8418 22.5897C21.8733 22.7041 21.925 22.8096 21.9949 22.9023C22.0798 22.9835 22.1803 23.0486 22.2925 23.095C22.4225 23.1404 22.5356 23.2148 22.6239 23.3131C22.7122 23.4114 22.7734 23.531 22.8032 23.6636C22.8358 23.7774 22.8885 23.8822 22.9593 23.974C23.0452 24.0545 23.1466 24.1188 23.2595 24.1642C23.3901 24.2084 23.5041 24.2818 23.5934 24.3792C23.6827 24.4766 23.7451 24.5956 23.7761 24.7277C23.8098 24.8409 23.8635 24.945 23.9352 25.036C24.022 25.1158 24.1243 25.1791 24.2379 25.2236C24.3691 25.2666 24.484 25.339 24.5743 25.4355C24.6647 25.532 24.7282 25.6503 24.7604 25.782C24.7952 25.8946 24.8499 25.998 24.9224 26.088C25.0102 26.1671 25.1134 26.2296 25.2277 26.2731C25.3595 26.3149 25.4752 26.3862 25.5665 26.4818C25.6578 26.5774 25.7225 26.6949 25.756 26.8261C25.7918 26.9381 25.8474 27.0406 25.9206 27.1298C26.0095 27.2081 26.1135 27.2697 26.2287 27.3122C26.3554 27.3596 26.4698 27.4282 26.5673 27.5152C26.6536 27.6158 26.7197 27.7323 26.7629 27.86C26.7997 27.9712 26.8563 28.0729 26.9303 28.1611C27.0203 28.2388 27.1254 28.2995 27.2415 28.341C27.3686 28.3871 27.4835 28.4543 27.5819 28.5401C27.6695 28.6399 27.737 28.7558 27.7815 28.8831C27.8195 28.9936 27.8769 29.0943 27.9518 29.1814C27.9797 29.2083 28.0107 29.232 28.0444 29.2523C28.069 29.2651 28.0947 29.2765 28.1212 29.2863C28.1299 29.2934 28.139 29.3001 28.1478 29.307C28.1859 29.3247 28.2256 29.3416 28.2662 29.3587C28.3399 29.3879 28.4112 29.4214 28.4797 29.4591L28.4917 29.4609C28.4988 29.4702 28.5026 29.4735 28.5 29.466L28.5029 29.4729C28.5411 29.4961 28.5764 29.523 28.6083 29.5535C28.6975 29.6525 28.7665 29.7678 28.8126 29.8948C28.8517 30.0043 28.9102 30.104 28.9858 30.19C29.0784 30.2663 29.1859 30.3252 29.3042 30.3644C29.4318 30.4075 29.5478 30.4716 29.6477 30.5544C29.7386 30.6525 29.8095 30.7672 29.8575 30.894C29.8977 31.0023 29.9572 31.1006 30.0336 31.1852C30.1279 31.2608 30.2371 31.3187 30.3569 31.3566C30.4845 31.3978 30.6009 31.4599 30.7015 31.5406C30.7946 31.6379 30.8677 31.7521 30.9179 31.8786C30.9595 31.9853 31.0201 32.082 31.0974 32.1648C31.1295 32.1931 31.1651 32.2177 31.2036 32.2381L31.2105 32.2415C31.2456 32.2577 31.2816 32.274 31.3186 32.2912C31.3547 32.3058 31.3914 32.3196 31.428 32.3332C31.5551 32.3719 31.6715 32.4313 31.7728 32.5092C31.8689 32.6055 31.9452 32.7191 31.9986 32.8456C32.0417 32.95 32.1034 33.044 32.1814 33.1242C32.2824 33.1987 32.3983 33.2545 32.5245 33.2893C32.6499 33.3243 32.7655 33.3794 32.8668 33.4526C32.9684 33.5479 33.0503 33.6613 33.1092 33.7884C33.1541 33.888 33.217 33.9772 33.2953 34.0525C33.4063 34.1289 33.5336 34.1838 33.6714 34.2148C33.7881 34.2415 33.897 34.286 33.9945 34.3466C34.0041 34.3525 34.0118 34.3608 34.0168 34.3707C34.0278 34.3806 34.037 34.3922 34.0441 34.4051C34.0441 34.4051 34.4032 34.8982 34.9333 34.6993C35.0161 34.6682 35.0858 34.6428 35.1446 34.6221C35.3114 34.7447 35.4979 34.8868 35.5912 34.9582C35.04 35.1034 34.4834 35.0821 34.0009 34.8974C31.3587 32.9092 26.2601 28.1746 20.8817 22.0013C17.2894 17.8781 14.0336 13.863 13.2477 12.8896L13.0767 13.0182C13.7345 13.834 17.0336 17.9071 20.7334 22.1538C26.1166 28.3326 31.7021 33.4717 33.8585 35.0541C35.1093 35.7093 36.0682 35.1247 36.0682 35.1247C27.7551 28.5529 16.1176 13.5931 14.7031 11.7822L13.6443 12.5869C13.6578 12.584 13.6712 12.5844 13.6833 12.588C13.6954 12.5917 13.7059 12.5985 13.7136 12.6078Z" fill="white"/>
<path d="M21.5333 22.3467L21.5397 22.3544L21.5344 22.3478L21.5333 22.3467Z" fill="white"/>
<path d="M27.4933 12.8053L25.8477 11.5547L26.3396 10.894L27.9853 12.1446L27.4933 12.8053Z" fill="white"/>
<path d="M28.854 12.3929L25.8018 10.0734C25.7559 10.0385 25.7423 9.97858 25.7714 9.93951L25.7913 9.91283C25.8204 9.87376 25.8811 9.87034 25.927 9.90519L28.9792 12.2248C29.0251 12.2596 29.0387 12.3195 29.0096 12.3586L28.9897 12.3853C28.9606 12.4244 28.8999 12.4278 28.854 12.3929Z" fill="white"/>
<path d="M26.8043 10.178L33.6423 0.994595L35.3292 2.27662L28.4912 11.4601L26.8043 10.178ZM34.2638 1.93373L33.7045 1.78604L34 2.2879L34.5593 2.43558L34.2638 1.93373ZM33.8523 2.48631L33.2931 2.33862L33.5886 2.84048L34.1478 2.98816L33.8523 2.48631ZM33.4409 3.03888L32.8817 2.89119L33.1771 3.39305L33.7364 3.54073L33.4409 3.03888ZM33.0294 3.59146L32.4702 3.44378L32.7657 3.94564L33.3249 4.09331L33.0294 3.59146ZM32.618 4.14403L32.0587 3.99634L32.3542 4.4982L32.9135 4.64588L32.618 4.14403ZM32.2065 4.6966L31.6473 4.54892L31.9428 5.05078L32.502 5.19846L32.2065 4.6966ZM31.7951 5.24918L31.2359 5.1015L31.5313 5.60336L32.0906 5.75104L31.7951 5.24918ZM31.3836 5.80175L30.8244 5.65407L31.1199 6.15593L31.6791 6.30361L31.3836 5.80175ZM30.9722 6.35433L30.413 6.20665L30.7085 6.70851L31.2677 6.85619L30.9722 6.35433ZM30.5607 6.90691L30.0015 6.75923L30.297 7.26108L30.8562 7.40876L30.5607 6.90691ZM30.1493 7.45949L29.5901 7.3118L29.8856 7.81366L30.4448 7.96134L30.1493 7.45949ZM29.7378 8.01206L29.1786 7.86437L29.4741 8.36623L30.0333 8.51391L29.7378 8.01206ZM29.3264 8.56464L28.7672 8.41695L29.0627 8.91881L29.6219 9.06649L29.3264 8.56464ZM28.9149 9.11721L28.3557 8.96953L28.6512 9.47139L29.2104 9.61907L28.9149 9.11721ZM28.5035 9.66979L27.9443 9.52211L28.2398 10.024L28.799 10.1716L28.5035 9.66979ZM28.092 10.2224L27.5328 10.0747L27.8283 10.5765L28.3875 10.7242L28.092 10.2224Z" fill="white"/>
<path d="M33.8191 0.767815L34.0621 0.441414C34.1667 0.31874 34.3249 0.249484 34.5021 0.248778C34.6793 0.248072 34.8612 0.315973 35.0079 0.437646L35.4904 0.804293C35.6468 0.913009 35.7618 1.07071 35.8103 1.24293C35.8587 1.41516 35.8367 1.58791 35.7491 1.72344L35.506 2.04984L33.8191 0.767815Z" fill="white"/>
<path d="M26.679 12.6088C26.6358 12.6778 26.6124 12.7586 26.6107 12.8445C26.6084 12.9369 26.5832 13.0239 26.537 13.0984C26.4881 13.1413 26.4284 13.1722 26.362 13.1889C26.2562 13.217 26.1634 13.2709 26.0915 13.346C26.0433 13.4224 26.017 13.512 26.0146 13.6072C26.0107 13.6406 26.0067 13.6744 26.0008 13.7065C25.9987 13.7175 25.9945 13.7277 25.9886 13.7368C25.9634 13.7761 25.9386 13.8158 25.9143 13.8561C25.9067 13.8692 25.8957 13.8797 25.8821 13.8869C25.8448 13.9044 25.8062 13.9199 25.7666 13.9331C25.665 13.9601 25.5756 14.0115 25.5061 14.0832C25.4564 14.1612 25.4291 14.2528 25.4264 14.3503C25.4248 14.4308 25.4039 14.5068 25.3653 14.5727C25.3131 14.6201 25.2486 14.6539 25.1766 14.6719C25.0761 14.6979 24.9878 14.7484 24.9193 14.819C24.8687 14.8976 24.8407 14.9901 24.8378 15.0886C24.8359 15.168 24.8152 15.243 24.7771 15.308C24.7243 15.3559 24.6591 15.39 24.5862 15.408C24.4864 15.4335 24.3985 15.4833 24.3302 15.5531C24.279 15.632 24.2506 15.7249 24.2473 15.8239C24.2452 15.9026 24.2245 15.977 24.1866 16.0415C24.1333 16.0895 24.0675 16.1238 23.994 16.1417C23.8945 16.1668 23.8069 16.216 23.7386 16.2853C23.6869 16.3642 23.658 16.4572 23.6544 16.5566C23.6521 16.6348 23.6313 16.7087 23.5934 16.7727C23.5397 16.8209 23.4736 16.8551 23.3997 16.8728C23.3004 16.8974 23.2128 16.9462 23.1444 17.015C23.0922 17.0939 23.0629 17.1871 23.0589 17.2866C23.0563 17.3646 23.0353 17.4381 22.9973 17.5018C22.9433 17.55 22.8768 17.5841 22.8025 17.6016C22.7033 17.6259 22.6157 17.6743 22.5471 17.7425C22.4945 17.8214 22.4647 17.9147 22.4603 18.0144C22.4683 18.0942 22.4468 18.1695 22.3996 18.2269C22.3523 18.2844 22.2824 18.3202 22.2023 18.3281C22.1032 18.352 22.0155 18.3999 21.9467 18.4677C21.8936 18.5464 21.8634 18.6397 21.8586 18.7395C21.8664 18.8192 21.8445 18.8944 21.797 18.9516C21.7495 19.0088 21.6793 19.0443 21.5991 19.0518C21.5217 19.073 21.4499 19.106 21.3862 19.1495C21.3732 19.1508 21.3602 19.1524 21.3469 19.153L21.3507 19.1709C21.3515 19.1741 21.3517 19.1773 21.3524 19.1805C21.3493 19.1838 21.346 19.1867 21.3431 19.1902C21.2895 19.2687 21.2589 19.3619 21.2537 19.4617C21.2611 19.5414 21.2389 19.6164 21.1911 19.6734C21.1432 19.7303 21.0729 19.7655 20.9926 19.7726C20.8934 19.7956 20.8054 19.8426 20.7362 19.9096C20.6822 19.988 20.6511 20.0811 20.6455 20.1809C20.6524 20.2606 20.6298 20.3355 20.5816 20.3922C20.5335 20.4489 20.4629 20.4837 20.3825 20.4905C20.2832 20.5132 20.195 20.5598 20.1254 20.6264C20.071 20.7045 20.0394 20.7975 20.0333 20.8973C20.0399 20.977 20.0168 21.0518 19.9683 21.1082C19.9199 21.1647 19.849 21.1992 19.7685 21.2056C19.6652 21.2191 19.5749 21.266 19.5115 21.3391C19.448 21.4123 19.4149 21.5076 19.417 21.6105C19.4139 21.6304 19.4107 21.6499 19.4073 21.6689C19.4045 21.6834 19.3984 21.6966 19.3892 21.7075C19.3275 21.7822 19.2656 21.8569 19.2037 21.9314C19.1972 21.9393 19.1893 21.946 19.1802 21.9511C19.1405 21.9737 19.0985 21.9951 19.0554 22.0169C18.926 22.0635 18.8137 22.1391 18.7265 22.2383C18.6393 22.3374 18.5793 22.4578 18.5508 22.5907C18.5193 22.7051 18.4676 22.8106 18.3977 22.9032C18.3128 22.9845 18.2123 23.0496 18.1001 23.096C17.9701 23.1413 17.8569 23.2158 17.7687 23.3141C17.6804 23.4124 17.6192 23.532 17.5894 23.6645C17.5568 23.7783 17.504 23.8832 17.4333 23.975C17.3474 24.0555 17.246 24.1198 17.1331 24.1652C17.0025 24.2094 16.8884 24.2828 16.7992 24.3802C16.7099 24.4776 16.6475 24.5966 16.6165 24.7286C16.5828 24.8419 16.529 24.946 16.4574 25.037C16.3705 25.1168 16.2683 25.1801 16.1547 25.2246C16.0234 25.2676 15.9086 25.34 15.8182 25.4365C15.7279 25.533 15.6644 25.6513 15.6321 25.783C15.5974 25.8956 15.5427 25.9989 15.4702 26.089C15.3824 26.1681 15.2792 26.2306 15.1648 26.274C15.0331 26.3159 14.9174 26.3872 14.8261 26.4828C14.7348 26.5784 14.6701 26.6959 14.6366 26.8271C14.6008 26.939 14.5452 27.0416 14.472 27.1307C14.3831 27.2091 14.2791 27.2707 14.1639 27.3131C14.0371 27.3606 13.9228 27.4292 13.8253 27.5162C13.7389 27.6168 13.6729 27.7332 13.6297 27.8609C13.5929 27.9722 13.5363 28.0739 13.4623 28.1621C13.3723 28.2398 13.2672 28.3005 13.1511 28.342C13.024 28.3881 12.909 28.4553 12.8107 28.541C12.723 28.6408 12.6556 28.7567 12.611 28.8841C12.5731 28.9945 12.5156 29.0953 12.4408 29.1824C12.4129 29.2093 12.3819 29.233 12.3482 29.2532C12.3235 29.2661 12.2979 29.2775 12.2714 29.2873C12.2627 29.2944 12.2535 29.301 12.2448 29.308C12.2067 29.3257 12.167 29.3425 12.1264 29.3596C12.0527 29.3889 11.9814 29.4224 11.9129 29.46L11.9009 29.4619C11.8938 29.4711 11.89 29.4745 11.8926 29.467L11.8897 29.4739C11.8514 29.497 11.8161 29.524 11.7843 29.5545C11.6951 29.6535 11.6261 29.7688 11.5799 29.8958C11.5409 30.0053 11.4824 30.105 11.4068 30.191C11.3142 30.2672 11.2066 30.3261 11.0884 30.3654C10.9608 30.4084 10.8448 30.4726 10.7449 30.5553C10.6539 30.6535 10.5831 30.7682 10.5351 30.895C10.4949 31.0033 10.4354 31.1016 10.359 31.1862C10.2647 31.2617 10.1555 31.3196 10.0357 31.3576C9.90809 31.3988 9.79171 31.4609 9.69105 31.5416C9.598 31.6389 9.52489 31.753 9.47463 31.8795C9.43305 31.9863 9.37245 32.083 9.2952 32.1657C9.26311 32.1941 9.2275 32.2186 9.18893 32.2391L9.18211 32.2425C9.14694 32.2587 9.11094 32.2749 9.07399 32.2922C9.03792 32.3068 9.00114 32.3206 8.96463 32.3341C8.83749 32.3729 8.72107 32.4323 8.61981 32.5101C8.52369 32.6064 8.44742 32.7201 8.394 32.8465C8.35091 32.9509 8.28917 33.045 8.21117 33.1251C8.11021 33.1997 7.99432 33.2555 7.86812 33.2903C7.74265 33.3252 7.62709 33.3803 7.52573 33.4535C7.42414 33.5489 7.34228 33.6623 7.28335 33.7894C7.23844 33.889 7.1756 33.9782 7.09728 34.0535C6.98626 34.1299 6.85902 34.1848 6.72118 34.2158C6.60446 34.2425 6.49553 34.2869 6.39807 34.3476C6.38844 34.3534 6.3808 34.3617 6.37579 34.3717C6.36479 34.3816 6.3556 34.3931 6.34852 34.4061C6.34852 34.4061 5.98942 34.8992 5.4593 34.7003C5.37649 34.6692 5.30674 34.6438 5.248 34.623C5.08119 34.7457 4.89469 34.8877 4.80141 34.9592C5.35256 35.1043 5.90919 35.0831 6.39166 34.8984C9.03386 32.9102 14.1325 28.1756 19.5109 22.0023C23.1032 17.8791 26.3589 13.864 27.1448 12.8906L27.3158 13.0192C26.6581 13.8349 23.359 17.9081 19.6592 22.1548C14.276 28.3335 8.69047 33.4727 6.53411 35.0551C5.28332 35.7103 4.32434 35.1256 4.32434 35.1256C12.6374 28.5538 24.275 13.5941 25.6895 11.7832L26.7483 12.5878C26.7348 12.5849 26.7214 12.5853 26.7093 12.589C26.6971 12.5927 26.6867 12.5995 26.679 12.6088Z" fill="white"/>
<path d="M18.8593 22.3471L18.8529 22.3549L18.8581 22.3483L18.8593 22.3471Z" fill="white"/>
</svg>
