<svg width="190" height="78" viewBox="0 0 190 78" fill="none" xmlns="http://www.w3.org/2000/svg">
<path d="M34.3617 77.6318H20.8617L20.1617 63.7318H14.4617L13.6617 77.6318H0.261719L4.26172 0.0318336H30.3617L34.3617 77.6318ZM19.4617 50.2318L17.5617 13.6318H17.0617L15.1617 50.2318H19.4617ZM72.3805 69.7318C72.3805 72.3318 71.4138 74.2985 69.4805 75.6318C67.6138 76.8985 65.3138 77.5318 62.5805 77.5318H38.7805V0.0318336H62.5805C65.2471 0.0318336 67.4805 0.631834 69.2805 1.83183C71.3471 3.2985 72.3805 5.26516 72.3805 7.73183V26.9318C72.3805 28.6652 71.7138 30.1318 70.3805 31.3318C69.1138 32.5318 67.7138 33.1985 66.1805 33.3318L65.8805 33.4318C67.6805 33.6985 69.2138 34.4652 70.4805 35.7318C71.7471 36.9985 72.3805 38.4985 72.3805 40.2318V69.7318ZM58.8805 23.1318V16.9318C58.8805 14.7985 57.7805 13.7318 55.5805 13.7318H52.2805V26.7318H55.5805C57.7805 26.7318 58.8805 25.5318 58.8805 23.1318ZM58.8805 60.3318V43.7318C58.8805 41.3985 57.7805 40.2318 55.5805 40.2318H52.2805V63.7318H55.5805C57.7805 63.7318 58.8805 62.5985 58.8805 60.3318ZM112.269 67.4318C112.269 69.8985 111.635 72.1318 110.369 74.1318C108.902 76.3985 106.969 77.5318 104.569 77.5318H87.0688C81.4688 77.5318 78.6688 74.1652 78.6688 67.4318V10.1318C78.6688 7.26517 79.3354 4.93183 80.6688 3.13183C82.1354 1.06517 84.2688 0.0318336 87.0688 0.0318336H104.669C107.002 0.0318336 108.902 1.16517 110.369 3.43183C111.635 5.43183 112.269 7.66517 112.269 10.1318V67.4318ZM98.7688 60.9318V17.1318C98.7688 14.7318 97.6354 13.5318 95.3688 13.5318C93.1688 13.5318 92.0688 14.7318 92.0688 17.1318V60.9318C92.0688 62.9985 93.1688 64.0318 95.3688 64.0318C97.6354 64.0318 98.7688 62.9985 98.7688 60.9318ZM151.641 67.4318C151.641 69.8985 151.007 72.1318 149.741 74.1318C148.274 76.3985 146.374 77.5318 144.041 77.5318H126.441C120.841 77.5318 118.041 74.1652 118.041 67.4318V0.0318336H131.541V60.1318C131.541 62.5985 132.641 63.8318 134.841 63.8318C137.041 63.8318 138.141 62.5985 138.141 60.1318V0.0318336H151.641V67.4318ZM189.317 13.5318H179.417V77.6318H165.917V13.5318H156.217V0.0318336H189.317V13.5318Z" fill="white"/>
</svg>
