<svg width="138" height="74" viewBox="0 0 138 74" fill="none" xmlns="http://www.w3.org/2000/svg">
<path d="M28.1842 13.4318H16.4842C14.3508 13.4318 13.2842 14.4652 13.2842 16.5318V57.8318C13.2842 59.6318 14.3508 60.5318 16.4842 60.5318H28.0842V73.5318H8.58418C3.25085 73.5318 0.58418 70.3652 0.58418 64.0318V9.93183C0.58418 3.5985 3.25085 0.431831 8.58418 0.431831H28.1842V13.4318ZM64.4178 73.6318H51.6178L50.9178 60.5318H45.5178L44.8178 73.5318H32.2178L35.9178 0.431831H60.5178L64.4178 73.6318ZM50.3178 47.7318L48.5178 13.3318H48.0178L46.2178 47.7318H50.3178ZM101.481 64.0318C101.481 66.3652 100.881 68.4652 99.6811 70.3318C98.2811 72.4652 96.4811 73.5318 94.2811 73.5318H77.7811C72.5144 73.5318 69.8811 70.3652 69.8811 64.0318V38.2318H82.4811V57.2318C82.4811 58.5652 82.6477 59.4652 82.9811 59.9318C83.3144 60.3985 84.1811 60.6318 85.5811 60.6318C86.9144 60.6318 87.7811 60.4318 88.1811 60.0318C88.5811 59.5652 88.7811 58.6652 88.7811 57.3318V40.1318C88.7811 38.8652 88.2811 37.9652 87.2811 37.4318L72.0811 29.4318C70.6144 28.6318 69.8811 27.3652 69.8811 25.6318V9.93183C69.8811 3.5985 72.5144 0.431831 77.7811 0.431831H94.1811C96.4477 0.431831 98.2811 1.4985 99.6811 3.63183C100.881 5.4985 101.481 7.5985 101.481 9.93183V20.0318H88.7811V16.7318C88.7811 14.5318 87.7477 13.4318 85.6811 13.4318C83.5477 13.4318 82.4811 14.4985 82.4811 16.6318V18.6318C82.4811 19.7652 82.9477 20.5318 83.8811 20.9318L98.8811 29.0318C100.614 29.9652 101.481 31.2985 101.481 33.0318V64.0318ZM137.59 13.1318H128.39V73.5318H115.59V13.1318H106.39V0.431831H137.59V13.1318Z" fill="white"/>
</svg>
