<svg width="211" height="79" viewBox="0 0 211 79" fill="none" xmlns="http://www.w3.org/2000/svg">
<path d="M34.517 68.4318C34.517 70.8985 33.8837 73.1318 32.617 75.1318C31.1503 77.3985 29.217 78.5318 26.817 78.5318H9.31699C3.71699 78.5318 0.916992 75.1652 0.916992 68.4318V41.1318H14.317V61.2318C14.317 62.6985 14.4837 63.6652 14.817 64.1318C15.217 64.5985 16.1503 64.8318 17.617 64.8318C18.9503 64.8318 19.817 64.5985 20.217 64.1318C20.6837 63.6652 20.917 62.7652 20.917 61.4318V43.1318C20.917 41.7985 20.3837 40.8652 19.317 40.3318L3.21699 31.8318C1.68366 31.0318 0.916992 29.6985 0.916992 27.8318V11.1318C0.916992 8.1985 1.61699 5.7985 3.01699 3.93183C4.41699 1.9985 6.51699 1.03183 9.31699 1.03183H26.917C29.2503 1.03183 31.1503 2.1985 32.617 4.53183C33.8837 6.53183 34.517 8.73183 34.517 11.1318V21.7318H20.917V18.3318C20.917 15.9318 19.817 14.7318 17.617 14.7318C15.417 14.7318 14.317 15.8985 14.317 18.2318V20.3318C14.317 21.4652 14.817 22.2985 15.817 22.8318L31.717 31.4318C33.5837 32.4318 34.517 33.7985 34.517 35.5318V68.4318ZM69.11 78.5318H48.31C42.71 78.5318 39.91 75.1652 39.91 68.4318V11.1318C39.91 8.26517 40.5766 5.93183 41.91 4.13183C43.3766 2.06517 45.51 1.03183 48.31 1.03183H69.11V14.8318H56.81C54.4766 14.8318 53.31 15.9318 53.31 18.1318V61.9318C53.31 62.7985 53.6766 63.4985 54.41 64.0318C55.1433 64.5652 55.9433 64.8318 56.81 64.8318H69.11V78.5318ZM100.301 78.6318H75.0014V1.03183L100.301 0.931835V14.8318H88.5014V27.8318H100.301V41.3318H88.5014V64.8318H100.301V78.6318ZM140.27 78.6318H126.77L120.07 41.2318V78.6318H106.57V1.03183H120.07L126.77 27.7318V1.03183H140.27V78.6318ZM171.735 78.6318H146.435V1.03183L171.735 0.931835V14.8318H159.935V27.8318H171.735V41.3318H159.935V64.8318H171.735V78.6318ZM210.904 68.4318C210.904 70.8985 210.27 73.1318 209.004 75.1318C207.537 77.3985 205.604 78.5318 203.204 78.5318H185.704C180.104 78.5318 177.304 75.1652 177.304 68.4318V41.1318H190.704V61.2318C190.704 62.6985 190.87 63.6652 191.204 64.1318C191.604 64.5985 192.537 64.8318 194.004 64.8318C195.337 64.8318 196.204 64.5985 196.604 64.1318C197.07 63.6652 197.304 62.7652 197.304 61.4318V43.1318C197.304 41.7985 196.77 40.8652 195.704 40.3318L179.604 31.8318C178.07 31.0318 177.304 29.6985 177.304 27.8318V11.1318C177.304 8.1985 178.004 5.7985 179.404 3.93183C180.804 1.9985 182.904 1.03183 185.704 1.03183H203.304C205.637 1.03183 207.537 2.1985 209.004 4.53183C210.27 6.53183 210.904 8.73183 210.904 11.1318V21.7318H197.304V18.3318C197.304 15.9318 196.204 14.7318 194.004 14.7318C191.804 14.7318 190.704 15.8985 190.704 18.2318V20.3318C190.704 21.4652 191.204 22.2985 192.204 22.8318L208.104 31.4318C209.97 32.4318 210.904 33.7985 210.904 35.5318V68.4318Z" fill="white"/>
</svg>
