<svg width="228" height="79" viewBox="0 0 228 79" fill="none" xmlns="http://www.w3.org/2000/svg">
<path d="M34.0643 14.0597H24.1643V78.1597H10.6643V14.0597H0.964258V0.559666H34.0643V14.0597ZM71.3229 78.1597H57.8229V46.5597C57.8229 43.7597 56.0895 41.8263 52.6229 40.7597H51.1229V78.1597H37.7229V0.559666H61.4229C64.0895 0.559666 66.1895 0.992999 67.7229 1.85967C70.1229 3.25966 71.3229 5.393 71.3229 8.25966V32.7597C71.3229 35.8263 69.8895 38.093 67.0229 39.5597C69.8895 41.893 71.3229 44.2263 71.3229 46.5597V78.1597ZM57.7229 23.6597V17.4597C57.7229 15.3263 56.6562 14.2597 54.5229 14.2597H51.1229V27.2597H54.5229C56.6562 27.2597 57.7229 26.0597 57.7229 23.6597ZM109.913 78.1597H96.4135L95.7135 64.2597H90.0135L89.2135 78.1597H75.8135L79.8135 0.559666H105.913L109.913 78.1597ZM95.0135 50.7597L93.1135 14.1597H92.6135L90.7135 50.7597H95.0135ZM127.932 78.1597H114.432V0.559666H127.932V78.1597ZM158.006 78.1597H132.706L132.806 0.559666H146.206V64.3597H158.006V78.1597ZM188.624 78.1597H163.324V0.559666L188.624 0.459667V14.3597H176.824V27.3597H188.624V40.8597H176.824V64.3597H188.624V78.1597ZM227.592 78.1597H214.092V46.5597C214.092 43.7597 212.359 41.8263 208.892 40.7597H207.392V78.1597H193.992V0.559666H217.692C220.359 0.559666 222.459 0.992999 223.992 1.85967C226.392 3.25966 227.592 5.393 227.592 8.25966V32.7597C227.592 35.8263 226.159 38.093 223.292 39.5597C226.159 41.893 227.592 44.2263 227.592 46.5597V78.1597ZM213.992 23.6597V17.4597C213.992 15.3263 212.926 14.2597 210.792 14.2597H207.392V27.2597H210.792C212.926 27.2597 213.992 26.0597 213.992 23.6597Z" fill="white"/>
</svg>
