<svg width="1717" height="468" viewBox="0 0 1717 468" fill="none" xmlns="http://www.w3.org/2000/svg">
<g filter="url(#filter0_d_103_52)">
<path fill-rule="evenodd" clip-rule="evenodd" d="M361.76 411.661H238.139V49.0446L361.76 48.556V120.095H307.834V171.505H361.76V241.2H307.834V340.595H361.76V411.661ZM1648.43 402.755L1648.42 402.763C1639.38 408.788 1628.2 411.661 1615.12 411.661H1518.81V340.595H1583.59C1587.97 340.595 1590.53 339.474 1592.03 337.924C1593.56 336.353 1594.67 333.649 1594.67 329.057V253.195C1594.67 248.423 1593.54 245.588 1591.99 243.943C1590.48 242.341 1587.94 241.2 1583.59 241.2H1518.81V171.048H1583.59C1587.94 171.048 1590.48 169.906 1591.99 168.305C1593.54 166.66 1594.67 163.825 1594.67 159.053V130.719C1594.67 126.493 1593.59 124.05 1592.12 122.622C1590.62 121.173 1588.03 120.095 1583.59 120.095H1518.81V49.0289H1615.12C1624.76 49.0289 1634.37 50.7979 1643.92 54.3004L1643.95 54.3112L1643.98 54.3225C1650.7 56.9071 1655.9 61.1723 1659.37 67.1258C1662.8 73.0141 1664.37 80.2797 1664.37 88.6749V175.962C1664.37 185.052 1660.82 192.935 1653.98 199.427L1653.98 199.431C1650.86 202.384 1647.42 204.741 1643.67 206.501C1647.62 208.274 1651.22 210.682 1654.43 213.731C1661.05 219.997 1664.37 227.915 1664.37 237.2V372.015C1664.37 385.158 1659.04 395.568 1648.44 402.747L1648.43 402.755ZM1391.31 241.2H1501.68V171.505H1391.31V241.2ZM1418.39 411.661H1294.76L1295.23 49.0289H1364.46V340.595H1418.39V411.661ZM1267.07 393.839L1267.08 393.823L1267.09 393.806C1273.3 383.998 1276.39 373.044 1276.39 361.047V99.1859C1276.39 87.1888 1273.3 76.2345 1267.09 66.4267L1267.08 66.4102L1267.07 66.3939C1259.76 55.1051 1249.91 49.0289 1237.66 49.0289H1157.23C1143.31 49.0289 1132.28 54.2461 1124.74 64.8495C1118.03 73.9306 1114.84 85.4864 1114.84 99.1859V361.047C1114.84 376.888 1118.12 389.513 1125.36 398.222C1132.72 407.073 1143.6 411.204 1157.23 411.204H1237.2C1249.72 411.204 1259.74 405.169 1267.07 393.839ZM1206.7 131.176V331.342C1206.7 335.348 1205.62 337.645 1204.12 339.011C1202.55 340.441 1199.81 341.509 1195.16 341.509C1190.69 341.509 1188.08 340.454 1186.59 339.052C1185.14 337.694 1184.08 335.381 1184.08 331.342V131.176C1184.08 126.226 1185.22 123.26 1186.8 121.54C1188.31 119.885 1190.84 118.724 1195.16 118.724C1199.66 118.724 1202.32 119.905 1203.9 121.583C1205.53 123.305 1206.7 126.253 1206.7 131.176ZM1081.21 393.823L1081.2 393.839C1073.87 405.169 1063.85 411.204 1051.33 411.204H971.357C957.731 411.204 946.852 407.073 939.491 398.222C932.248 389.513 928.969 376.888 928.969 361.047V99.1859C928.969 85.4853 932.157 73.9287 938.871 64.8473C946.411 54.2453 957.438 49.0289 971.357 49.0289H1051.79C1064.04 49.0289 1073.89 55.1051 1081.2 66.3939L1081.21 66.4102L1081.22 66.4267C1087.43 76.2345 1090.52 87.1888 1090.52 99.1859V361.047C1090.52 373.044 1087.43 383.998 1081.22 393.806L1081.21 393.823ZM1020.83 331.342V131.176C1020.83 126.253 1019.66 123.305 1018.03 121.583C1016.45 119.905 1013.79 118.724 1009.29 118.724C1004.97 118.724 1002.44 119.885 1000.93 121.54C999.349 123.26 998.207 126.226 998.207 131.176V331.342C998.207 335.381 999.271 337.694 1000.72 339.052C1002.21 340.454 1004.82 341.509 1009.29 341.509C1013.94 341.509 1016.68 340.441 1018.25 339.011C1019.75 337.645 1020.83 335.348 1020.83 331.342ZM746.637 411.204H815.875V240.743H859.403C874.773 240.743 887.044 237.622 895.522 230.702C904.156 223.654 908.189 213.225 908.189 200.183V88.2178C908.189 75.3373 902.828 65.0986 892.266 57.9432L892.226 57.9162L892.185 57.8902C882.889 51.9143 871.743 49.0289 858.946 49.0289H746.637V411.204ZM838.494 130.262V158.596C838.494 163.545 837.352 166.511 835.775 168.232C834.258 169.887 831.73 171.048 827.413 171.048H815.875V119.638H827.413C831.854 119.638 834.444 120.716 835.939 122.165C837.412 123.593 838.494 126.036 838.494 130.262ZM562.095 411.679V49.0289H665.721C680.617 49.0289 693.974 53.5856 705.651 62.6675C717.578 71.944 723.647 84.2221 723.647 99.1859V361.047C723.647 376.011 717.578 388.289 705.651 397.565C693.977 406.645 680.624 411.201 665.733 411.204H665.721L562.095 411.679ZM653.952 328.143V133.918C653.952 127.935 652.758 124.185 651.036 121.994C649.459 119.986 646.99 118.724 642.871 118.724H631.79V341.509H642.871C647.123 341.509 649.627 340.311 651.161 338.545C652.789 336.67 653.952 333.443 653.952 328.143ZM473.548 411.661H543.258L524.565 49.0289H397.69L378.998 411.661H448.224L451.88 348.138H470.349L473.548 411.661ZM455.515 278.443L461.128 170.329L466.74 278.443H455.515ZM196.238 397.565C184.565 406.645 171.212 411.201 156.321 411.204H156.309L52.6826 411.679V49.0289H156.309C171.204 49.0289 184.562 53.5856 196.238 62.6675C208.165 71.944 214.235 84.2221 214.235 99.1859V361.047C214.235 376.011 208.165 388.289 196.238 397.565ZM144.54 133.918V328.143C144.54 333.443 143.377 336.67 141.749 338.545C140.215 340.311 137.711 341.509 133.459 341.509H122.378V118.724H133.459C137.578 118.724 140.047 119.986 141.624 121.994C143.346 124.185 144.54 127.935 144.54 133.918Z" fill="white"/>
</g>
<defs>
<filter id="filter0_d_103_52" x="0.682617" y="0.55603" width="1715.68" height="467.123" filterUnits="userSpaceOnUse" color-interpolation-filters="sRGB">
<feFlood flood-opacity="0" result="BackgroundImageFix"/>
<feColorMatrix in="SourceAlpha" type="matrix" values="0 0 0 0 0 0 0 0 0 0 0 0 0 0 0 0 0 0 127 0" result="hardAlpha"/>
<feOffset dy="4"/>
<feGaussianBlur stdDeviation="26"/>
<feComposite in2="hardAlpha" operator="out"/>
<feColorMatrix type="matrix" values="0 0 0 0 0 0 0 0 0 0 0 0 0 0 0 0 0 0 1 0"/>
<feBlend mode="normal" in2="BackgroundImageFix" result="effect1_dropShadow_103_52"/>
<feBlend mode="normal" in="SourceGraphic" in2="effect1_dropShadow_103_52" result="shape"/>
</filter>
</defs>
</svg>
