<svg width="1613" height="468" viewBox="0 0 1613 468" fill="none" xmlns="http://www.w3.org/2000/svg">
<path fill-rule="evenodd" clip-rule="evenodd" d="M1596.4 402.632L1596.42 402.624L1596.43 402.616C1607.03 395.437 1612.35 385.027 1612.35 371.884V237.069C1612.35 227.784 1609.03 219.866 1602.42 213.6C1599.2 210.551 1595.61 208.143 1591.66 206.37C1595.4 204.61 1598.85 202.253 1601.96 199.3L1601.97 199.296C1608.8 192.804 1612.35 184.921 1612.35 175.831V88.544C1612.35 80.1488 1610.78 72.8832 1607.35 66.995C1603.89 61.0415 1598.68 56.7762 1591.96 54.1916L1591.94 54.1803L1591.91 54.1695C1582.35 50.667 1572.75 48.898 1563.11 48.898H1466.79V119.964H1531.58C1536.02 119.964 1538.61 121.042 1540.1 122.492C1541.57 123.919 1542.66 126.362 1542.66 130.588V158.922C1542.66 163.694 1541.53 166.529 1539.98 168.174C1538.47 169.775 1535.92 170.917 1531.58 170.917H1466.79V241.069H1531.58C1535.92 241.069 1538.47 242.211 1539.98 243.812C1541.53 245.457 1542.66 248.292 1542.66 253.064V328.926C1542.66 333.518 1541.54 336.222 1540.02 337.794C1538.51 339.343 1535.96 340.464 1531.58 340.464H1466.79V411.53H1563.11C1576.18 411.53 1587.37 408.657 1596.4 402.632Z" fill="white"/>
<g filter="url(#filter0_d_108_117)">
<path fill-rule="evenodd" clip-rule="evenodd" d="M1339.29 241.069H1449.66V171.374H1339.29V241.069Z" fill="white"/>
</g>
<g filter="url(#filter1_d_108_117)">
<path fill-rule="evenodd" clip-rule="evenodd" d="M1242.75 411.53H1366.38V340.464H1312.45V48.898H1243.22L1242.75 411.53ZM1308.45 52.898V344.464H1308.45V52.898H1308.45ZM1362.38 344.464V407.53H1362.38V344.464H1362.38Z" fill="white"/>
</g>
<g filter="url(#filter2_d_108_117)">
<path fill-rule="evenodd" clip-rule="evenodd" d="M1215.05 393.708L1215.06 393.692L1215.07 393.675C1221.29 383.867 1224.38 372.913 1224.38 360.916V99.055C1224.38 87.058 1221.29 76.1037 1215.07 66.2958L1215.06 66.2793L1215.05 66.263C1207.75 54.9743 1197.9 48.898 1185.65 48.898H1105.21C1091.29 48.898 1080.26 54.1152 1072.73 64.7186C1066.01 73.7997 1062.83 85.3556 1062.83 99.055V360.916C1062.83 376.757 1066.1 389.383 1073.35 398.092C1080.71 406.942 1091.59 411.073 1105.21 411.073H1185.19C1197.7 411.073 1207.72 405.038 1215.05 393.708ZM1154.68 131.045V331.211C1154.68 335.217 1153.6 337.514 1152.1 338.88C1150.53 340.31 1147.79 341.378 1143.14 341.378C1138.67 341.378 1136.07 340.323 1134.57 338.921C1133.13 337.563 1132.06 335.251 1132.06 331.211V131.045C1132.06 126.096 1133.2 123.13 1134.78 121.409C1136.3 119.754 1138.83 118.593 1143.14 118.593C1147.65 118.593 1150.3 119.774 1151.89 121.452C1153.52 123.174 1154.68 126.122 1154.68 131.045Z" fill="white"/>
</g>
<g filter="url(#filter3_d_108_117)">
<path fill-rule="evenodd" clip-rule="evenodd" d="M1029.18 393.708L1029.19 393.692L1029.2 393.675C1035.41 383.867 1038.51 372.913 1038.51 360.916V99.055C1038.51 87.058 1035.41 76.1037 1029.2 66.2958L1029.19 66.2793L1029.18 66.263C1021.88 54.9743 1012.03 48.898 999.775 48.898H919.343C905.424 48.898 894.396 54.1145 886.857 64.7164C880.143 73.7979 876.955 85.3545 876.955 99.055V360.916C876.955 376.757 880.234 389.383 887.477 398.092C894.837 406.942 905.717 411.073 919.343 411.073H999.318C1011.83 411.073 1021.85 405.038 1029.18 393.708ZM968.812 131.045V331.211C968.812 335.217 967.731 337.514 966.233 338.88C964.664 340.31 961.924 341.378 957.274 341.378C952.804 341.378 950.195 340.323 948.702 338.921C947.256 337.563 946.193 335.251 946.193 331.211V131.045C946.193 126.096 947.335 123.13 948.912 121.409C950.429 119.754 952.958 118.593 957.274 118.593C961.777 118.593 964.434 119.774 966.02 121.452C967.646 123.174 968.812 126.122 968.812 131.045Z" fill="white"/>
</g>
<g filter="url(#filter4_d_108_117)">
<path fill-rule="evenodd" clip-rule="evenodd" d="M694.622 411.073H763.86V240.612H807.388C822.758 240.612 835.029 237.492 843.507 230.571C852.141 223.523 856.174 213.094 856.174 200.052V88.087C856.174 75.2065 850.813 64.9677 840.25 57.8123L840.211 57.7853L840.17 57.7593C830.874 51.7834 819.728 48.898 806.931 48.898H694.622V411.073ZM786.479 130.131V158.465C786.479 163.415 785.337 166.381 783.76 168.101C782.243 169.756 779.715 170.917 775.398 170.917H763.86V119.507H775.398C779.839 119.507 782.429 120.585 783.924 122.035C785.397 123.462 786.479 125.905 786.479 130.131Z" fill="white"/>
</g>
<g filter="url(#filter5_d_108_117)">
<path fill-rule="evenodd" clip-rule="evenodd" d="M510.08 48.898V411.548L613.706 411.073H613.718C628.609 411.071 641.962 406.514 653.636 397.434C665.563 388.158 671.632 375.88 671.632 360.916V99.055C671.632 84.0913 665.563 71.8131 653.636 62.5366C641.959 53.4548 628.602 48.898 613.706 48.898H510.08ZM601.937 133.787V328.012C601.937 333.312 600.774 336.54 599.147 338.414C597.613 340.18 595.108 341.378 590.856 341.378H579.775V118.593H590.856C594.975 118.593 597.444 119.855 599.022 121.863C600.743 124.054 601.937 127.804 601.937 133.787Z" fill="white"/>
</g>
<g filter="url(#filter6_d_108_117)">
<path fill-rule="evenodd" clip-rule="evenodd" d="M421.533 411.53H491.243L472.551 48.898H345.676L326.983 411.53H396.209L399.865 348.007H418.334L421.533 411.53ZM396.089 344.007H396.088L392.432 407.53H392.433L396.089 344.007ZM468.751 52.898L487.031 407.53H487.032L468.752 52.898H468.751ZM407.971 115.05H407.97L399.287 282.312H399.288L407.971 115.05ZM403.501 278.312L409.113 170.198L414.726 278.312H403.501Z" fill="white"/>
</g>
<g filter="url(#filter7_d_108_117)">
<path fill-rule="evenodd" clip-rule="evenodd" d="M186.124 411.53H309.745V340.464H255.819V241.069H309.745V171.374H255.819V119.964H309.745V48.4252L186.124 48.9138V411.53Z" fill="white"/>
</g>
<path fill-rule="evenodd" clip-rule="evenodd" d="M144.224 397.435C132.55 406.514 119.197 411.071 104.306 411.073H104.294L0.667969 411.548V48.8981H104.294C119.19 48.8981 132.547 53.4548 144.224 62.5367C156.151 71.8132 162.22 84.0913 162.22 99.0551V360.916C162.22 375.88 156.151 388.158 144.224 397.435ZM92.525 133.787V328.012C92.525 333.312 91.3623 336.54 89.7346 338.414C88.2006 340.18 85.6959 341.378 81.444 341.378H70.363V118.593H81.444C85.5629 118.593 88.0319 119.855 89.6095 121.863C91.3314 124.054 92.525 127.804 92.525 133.787Z" fill="white"/>
<defs>
<filter id="filter0_d_108_117" x="1287.29" y="123.374" width="214.368" height="173.695" filterUnits="userSpaceOnUse" color-interpolation-filters="sRGB">
<feFlood flood-opacity="0" result="BackgroundImageFix"/>
<feColorMatrix in="SourceAlpha" type="matrix" values="0 0 0 0 0 0 0 0 0 0 0 0 0 0 0 0 0 0 127 0" result="hardAlpha"/>
<feOffset dy="4"/>
<feGaussianBlur stdDeviation="26"/>
<feComposite in2="hardAlpha" operator="out"/>
<feColorMatrix type="matrix" values="0 0 0 0 0 0 0 0 0 0 0 0 0 0 0 0 0 0 1 0"/>
<feBlend mode="normal" in2="BackgroundImageFix" result="effect1_dropShadow_108_117"/>
<feBlend mode="normal" in="SourceGraphic" in2="effect1_dropShadow_108_117" result="shape"/>
</filter>
<filter id="filter1_d_108_117" x="1190.75" y="0.89801" width="227.626" height="466.632" filterUnits="userSpaceOnUse" color-interpolation-filters="sRGB">
<feFlood flood-opacity="0" result="BackgroundImageFix"/>
<feColorMatrix in="SourceAlpha" type="matrix" values="0 0 0 0 0 0 0 0 0 0 0 0 0 0 0 0 0 0 127 0" result="hardAlpha"/>
<feOffset dy="4"/>
<feGaussianBlur stdDeviation="26"/>
<feComposite in2="hardAlpha" operator="out"/>
<feColorMatrix type="matrix" values="0 0 0 0 0 0 0 0 0 0 0 0 0 0 0 0 0 0 1 0"/>
<feBlend mode="normal" in2="BackgroundImageFix" result="effect1_dropShadow_108_117"/>
<feBlend mode="normal" in="SourceGraphic" in2="effect1_dropShadow_108_117" result="shape"/>
</filter>
<filter id="filter2_d_108_117" x="1010.83" y="0.89801" width="265.552" height="466.175" filterUnits="userSpaceOnUse" color-interpolation-filters="sRGB">
<feFlood flood-opacity="0" result="BackgroundImageFix"/>
<feColorMatrix in="SourceAlpha" type="matrix" values="0 0 0 0 0 0 0 0 0 0 0 0 0 0 0 0 0 0 127 0" result="hardAlpha"/>
<feOffset dy="4"/>
<feGaussianBlur stdDeviation="26"/>
<feComposite in2="hardAlpha" operator="out"/>
<feColorMatrix type="matrix" values="0 0 0 0 0 0 0 0 0 0 0 0 0 0 0 0 0 0 1 0"/>
<feBlend mode="normal" in2="BackgroundImageFix" result="effect1_dropShadow_108_117"/>
<feBlend mode="normal" in="SourceGraphic" in2="effect1_dropShadow_108_117" result="shape"/>
</filter>
<filter id="filter3_d_108_117" x="824.955" y="0.89801" width="265.552" height="466.175" filterUnits="userSpaceOnUse" color-interpolation-filters="sRGB">
<feFlood flood-opacity="0" result="BackgroundImageFix"/>
<feColorMatrix in="SourceAlpha" type="matrix" values="0 0 0 0 0 0 0 0 0 0 0 0 0 0 0 0 0 0 127 0" result="hardAlpha"/>
<feOffset dy="4"/>
<feGaussianBlur stdDeviation="26"/>
<feComposite in2="hardAlpha" operator="out"/>
<feColorMatrix type="matrix" values="0 0 0 0 0 0 0 0 0 0 0 0 0 0 0 0 0 0 1 0"/>
<feBlend mode="normal" in2="BackgroundImageFix" result="effect1_dropShadow_108_117"/>
<feBlend mode="normal" in="SourceGraphic" in2="effect1_dropShadow_108_117" result="shape"/>
</filter>
<filter id="filter4_d_108_117" x="642.622" y="0.89801" width="265.552" height="466.175" filterUnits="userSpaceOnUse" color-interpolation-filters="sRGB">
<feFlood flood-opacity="0" result="BackgroundImageFix"/>
<feColorMatrix in="SourceAlpha" type="matrix" values="0 0 0 0 0 0 0 0 0 0 0 0 0 0 0 0 0 0 127 0" result="hardAlpha"/>
<feOffset dy="4"/>
<feGaussianBlur stdDeviation="26"/>
<feComposite in2="hardAlpha" operator="out"/>
<feColorMatrix type="matrix" values="0 0 0 0 0 0 0 0 0 0 0 0 0 0 0 0 0 0 1 0"/>
<feBlend mode="normal" in2="BackgroundImageFix" result="effect1_dropShadow_108_117"/>
<feBlend mode="normal" in="SourceGraphic" in2="effect1_dropShadow_108_117" result="shape"/>
</filter>
<filter id="filter5_d_108_117" x="458.08" y="0.89801" width="265.552" height="466.65" filterUnits="userSpaceOnUse" color-interpolation-filters="sRGB">
<feFlood flood-opacity="0" result="BackgroundImageFix"/>
<feColorMatrix in="SourceAlpha" type="matrix" values="0 0 0 0 0 0 0 0 0 0 0 0 0 0 0 0 0 0 127 0" result="hardAlpha"/>
<feOffset dy="4"/>
<feGaussianBlur stdDeviation="26"/>
<feComposite in2="hardAlpha" operator="out"/>
<feColorMatrix type="matrix" values="0 0 0 0 0 0 0 0 0 0 0 0 0 0 0 0 0 0 1 0"/>
<feBlend mode="normal" in2="BackgroundImageFix" result="effect1_dropShadow_108_117"/>
<feBlend mode="normal" in="SourceGraphic" in2="effect1_dropShadow_108_117" result="shape"/>
</filter>
<filter id="filter6_d_108_117" x="274.983" y="0.89801" width="268.26" height="466.632" filterUnits="userSpaceOnUse" color-interpolation-filters="sRGB">
<feFlood flood-opacity="0" result="BackgroundImageFix"/>
<feColorMatrix in="SourceAlpha" type="matrix" values="0 0 0 0 0 0 0 0 0 0 0 0 0 0 0 0 0 0 127 0" result="hardAlpha"/>
<feOffset dy="4"/>
<feGaussianBlur stdDeviation="26"/>
<feComposite in2="hardAlpha" operator="out"/>
<feColorMatrix type="matrix" values="0 0 0 0 0 0 0 0 0 0 0 0 0 0 0 0 0 0 1 0"/>
<feBlend mode="normal" in2="BackgroundImageFix" result="effect1_dropShadow_108_117"/>
<feBlend mode="normal" in="SourceGraphic" in2="effect1_dropShadow_108_117" result="shape"/>
</filter>
<filter id="filter7_d_108_117" x="134.124" y="0.425171" width="227.621" height="467.105" filterUnits="userSpaceOnUse" color-interpolation-filters="sRGB">
<feFlood flood-opacity="0" result="BackgroundImageFix"/>
<feColorMatrix in="SourceAlpha" type="matrix" values="0 0 0 0 0 0 0 0 0 0 0 0 0 0 0 0 0 0 127 0" result="hardAlpha"/>
<feOffset dy="4"/>
<feGaussianBlur stdDeviation="26"/>
<feComposite in2="hardAlpha" operator="out"/>
<feColorMatrix type="matrix" values="0 0 0 0 0 0 0 0 0 0 0 0 0 0 0 0 0 0 1 0"/>
<feBlend mode="normal" in2="BackgroundImageFix" result="effect1_dropShadow_108_117"/>
<feBlend mode="normal" in="SourceGraphic" in2="effect1_dropShadow_108_117" result="shape"/>
</filter>
</defs>
</svg>
